<?xml version="1.0" encoding="UTF-8"?>
<svg width="48px" height="48px" viewBox="0 0 48 48" version="1.1" xmlns="http://www.w3.org/2000/svg" xmlns:xlink="http://www.w3.org/1999/xlink">
    <title>下版</title>
    <g id="下版" stroke="none" stroke-width="1" fill="none" fill-rule="evenodd">
        <g id="编组" transform="translate(5.000000, 5.000000)" fill="#131415">
            <path d="M31,0 C31.5522847,0 32,0.44771525 32,1 L32,12 L23.2222222,12 C22.5893959,12 22.0689002,12.4809441 22.0063102,13.0972571 L22,13.2222222 L22,27.8888889 C22,27.9263522 22.0016855,27.9634218 22.0049849,28.0000261 L17.4753527,28 C17.313276,28 17.1578375,28.0643847 17.0432319,28.1789903 C16.8310953,28.391127 16.8075245,28.7204234 16.9725197,28.9585956 L17.0432319,29.0432319 L26,38 L1,38 C0.44771525,38 0,37.5522847 0,37 L0,1 C0,0.44771525 0.44771525,0 1,0 L31,0 Z M5,20 C4.48716416,20 4.06449284,20.3860402 4.00672773,20.8833789 L4,21 L4,22 C4,22.5128358 4.38604019,22.9355072 4.88337887,22.9932723 L5,23 L17,23 C17.5128358,23 17.9355072,22.6139598 17.9932723,22.1166211 L18,22 L18,21 C18,20.4871642 17.6139598,20.0644928 17.1166211,20.0067277 L17,20 L5,20 Z M17,13 L5,13 C4.48716416,13 4.06449284,13.3860402 4.00672773,13.8833789 L4,14 L4,15 C4,15.5128358 4.38604019,15.9355072 4.88337887,15.9932723 L5,16 L17,16 C17.5128358,16 17.9355072,15.6139598 17.9932723,15.1166211 L18,15 L18,14 C18,13.4871642 17.6139598,13.0644928 17.1166211,13.0067277 L17,13 Z M27,6 L5,6 C4.48716416,6 4.06449284,6.38604019 4.00672773,6.88337887 L4,7 L4,8 C4,8.51283584 4.38604019,8.93550716 4.88337887,8.99327227 L5,9 L27,9 C27.5128358,9 27.9355072,8.61395981 27.9932723,8.11662113 L28,8 L28,7 C28,6.48716416 27.6139598,6.06449284 27.1166211,6.00672773 L27,6 Z" id="形状"></path>
            <path d="M32.7777778,16 C33.4527925,16 34,16.5472075 34,17.2222222 L33.9992416,30 L36.5246473,30 C36.8621546,30 37.1357584,30.2736038 37.1357584,30.6111111 C37.1357584,30.7731879 37.0713736,30.9286264 36.9567681,31.0432319 L30.4321208,37.5678792 C30.1934671,37.8065329 29.8065329,37.8065329 29.5678792,37.5678792 L23.0432319,31.0432319 C22.8045782,30.8045782 22.8045782,30.417644 23.0432319,30.1789903 C23.1578375,30.0643847 23.313276,30 23.4753527,30 L25.9992416,29.999 L26,17.2222222 C26,16.5472075 26.5472075,16 27.2222222,16 L32.7777778,16 Z" id="路径" opacity="0.600000024"></path>
        </g>
    </g>
</svg>