<?xml version="1.0" encoding="UTF-8"?>
<svg width="48px" height="48px" viewBox="0 0 48 48" version="1.1" xmlns="http://www.w3.org/2000/svg" xmlns:xlink="http://www.w3.org/1999/xlink">
    <title>主数据管理</title>
    <g id="主数据管理" stroke="none" stroke-width="1" fill="none" fill-rule="evenodd">
        <g transform="translate(5.000000, 5.000000)" fill="#131415">
            <path d="M25.1715729,0 C25.7020059,-6.09264329e-15 26.2107137,0.210713681 26.5857864,0.585786438 L37.4142136,11.4142136 C37.7892863,11.7892863 38,12.2979941 38,12.8284271 L38,37 C38,37.5522847 37.5522847,38 37,38 L1,38 C0.44771525,38 6.76353751e-17,37.5522847 0,37 L0,1 C-6.76353751e-17,0.44771525 0.44771525,1.01453063e-16 1,0 L25.1715729,0 Z M33,17 L5,17 C4.44771525,17 4,17.4477153 4,18 L4,18 L4,33 C4,33.5522847 4.44771525,34 5,34 L5,34 L33,34 C33.5522847,34 34,33.5522847 34,33 L34,33 L34,18 C34,17.4477153 33.5522847,17 33,17 L33,17 Z M21,4 L5,4 C4.44771525,4 4,4.44771525 4,5 L4,5 L4,12 C4,12.5522847 4.44771525,13 5,13 L5,13 L21,13 C21.5522847,13 22,12.5522847 22,12 L22,12 L22,5 C22,4.44771525 21.5522847,4 21,4 L21,4 Z" id="形状结合"></path>
            <rect id="矩形" opacity="0.600000024" x="22" y="21" width="8" height="8" rx="1"></rect>
        </g>
    </g>
</svg>