<?xml version="1.0" encoding="UTF-8"?>
<svg width="48px" height="48px" viewBox="0 0 48 48" version="1.1" xmlns="http://www.w3.org/2000/svg" xmlns:xlink="http://www.w3.org/1999/xlink">
    <title>交货</title>
    <g id="交货" stroke="none" stroke-width="1" fill="none" fill-rule="evenodd">
        <g id="编组" transform="translate(5.000000, 5.000000)" fill="#131415">
            <path d="M34,11 C34.5522847,11 35,11.4477153 35,12 L35,37 C35,37.5522847 34.5522847,38 34,38 L4,38 C3.44771525,38 3,37.5522847 3,37 L3,12 C3,11.4477153 3.44771525,11 4,11 L34,11 Z M26,17 L12,17 C11.4477153,17 11,17.4477153 11,18 L11,18 L11,20 C11,20.5522847 11.4477153,21 12,21 L12,21 L26,21 C26.5522847,21 27,20.5522847 27,20 L27,20 L27,18 C27,17.4477153 26.5522847,17 26,17 L26,17 Z" id="形状结合"></path>
            <rect id="矩形" opacity="0.600000024" x="0" y="0" width="38" height="8" rx="1"></rect>
        </g>
    </g>
</svg>