<?xml version="1.0" encoding="UTF-8"?>
<svg width="48px" height="48px" viewBox="0 0 48 48" version="1.1" xmlns="http://www.w3.org/2000/svg" xmlns:xlink="http://www.w3.org/1999/xlink">
    <title>付款申请</title>
    <g id="付款申请" stroke="none" stroke-width="1" fill="none" fill-rule="evenodd">
        <g id="编组" transform="translate(5.000000, 5.000000)" fill="#131415">
            <path d="M31,0 C31.5522847,0 32,0.44771525 32,1 L32,13 C32,13.5522847 31.5522847,14 31,14 L21,14 C20.4871642,14 20.0644928,14.3860402 20.0067277,14.8833789 L20,15 L20,37 C20,37.5522847 19.5522847,38 19,38 L1,38 C0.44771525,38 0,37.5522847 0,37 L0,1 C0,0.44771525 0.44771525,0 1,0 L31,0 Z M15,21 L5,21 C4.44771525,21 4,21.4477153 4,22 L4,22 L4,23 C4,23.5522847 4.44771525,24 5,24 L5,24 L15,24 C15.5522847,24 16,23.5522847 16,23 L16,23 L16,22 C16,21.4477153 15.5522847,21 15,21 L15,21 Z M15,14 L5,14 C4.44771525,14 4,14.4477153 4,15 L4,15 L4,16 C4,16.5522847 4.44771525,17 5,17 L5,17 L15,17 C15.5522847,17 16,16.5522847 16,16 L16,16 L16,15 C16,14.4477153 15.5522847,14 15,14 L15,14 Z M27,7 L5,7 C4.44771525,7 4,7.44771525 4,8 L4,8 L4,9 C4,9.55228475 4.44771525,10 5,10 L5,10 L27,10 C27.5522847,10 28,9.55228475 28,9 L28,9 L28,8 C28,7.44771525 27.5522847,7 27,7 L27,7 Z" id="形状结合"></path>
            <path d="M37,18 C37.5522847,18 38,18.4477153 38,19 L38,37 C38,37.5522847 37.5522847,38 37,38 L25,38 C24.4477153,38 24,37.5522847 24,37 L24,19 C24,18.4477153 24.4477153,18 25,18 L37,18 Z M34.6913136,20.0711908 C34.3581513,19.9335944 33.9656192,20.0570499 33.775154,20.3757239 L33.775154,20.3757239 L33.7667888,20.3900841 L33.7667888,20.3900841 L33.7640723,20.3949122 L30.994,25.36 L28.2268933,20.3978103 C28.2232955,20.3913593 28.2196012,20.3849624 28.2158116,20.3786221 C28.0062999,20.0280807 27.5522872,19.9137536 27.2017458,20.1232653 L27.2017458,20.1232653 L26.6159699,20.4733721 C26.2728338,20.6784579 26.1548192,21.1191226 26.3495315,21.4682496 L26.3495315,21.4682496 L28.68,25.647 L26.7394378,25.6478709 C26.3310576,25.6478709 26,25.9789285 26,26.3873087 L26,26.3873087 L26,27.1267465 C26,27.5351267 26.3310576,27.8661843 26.7394378,27.8661843 L26.7394378,27.8661843 L29.571,27.866 L29.571,29.345 L26.7394378,29.3450599 C26.3310576,29.3450599 26,29.6761175 26,30.0844977 L26,30.0844977 L26,30.8239355 C26,31.2323157 26.3310576,31.5633733 26.7394378,31.5633733 L26.7394378,31.5633733 L29.571,31.563 L29.5714286,35.2605622 C29.5714286,35.6689424 29.9024861,36 30.3108664,36 L30.3108664,36 L31.6891336,36 C32.0975139,36 32.4285714,35.6689424 32.4285714,35.2605622 L32.4285714,35.2605622 L32.428,31.563 L35.2605622,31.5633733 C35.6689424,31.5633733 36,31.2323157 36,30.8239355 L36,30.8239355 L36,30.0844977 C36,29.6761175 35.6689424,29.3450599 35.2605622,29.3450599 L35.2605622,29.3450599 L32.428,29.345 L32.428,27.866 L35.2605622,27.8661843 C35.6689424,27.8661843 36,27.5351267 36,27.1267465 L36,27.1267465 L36,26.3873087 C36,25.9789285 35.6689424,25.6478709 35.2605622,25.6478709 L35.2605622,25.6478709 L33.309,25.647 L35.6414342,21.4653515 L35.6868498,21.3681113 C35.8128287,21.0380505 35.6869377,20.6569156 35.3749957,20.470474 L35.3749957,20.470474 L34.7892198,20.1203671 Z" id="形状结合" opacity="0.600000024"></path>
        </g>
    </g>
</svg>