<?xml version="1.0" encoding="UTF-8"?>
<svg width="48px" height="48px" viewBox="0 0 48 48" version="1.1" xmlns="http://www.w3.org/2000/svg" xmlns:xlink="http://www.w3.org/1999/xlink">
    <title>企业信息</title>
    <g id="企业信息" stroke="none" stroke-width="1" fill="none" fill-rule="evenodd">
        <g id="编组" transform="translate(5.000000, 2.538512)" fill="none">
            <rect id="矩形" x="0" y="39.4614876" width="38" height="4" rx="1"></rect>
            <path d="M20.9138115,0.594111108 C20.9706378,0.721970106 21,0.860331231 21,1.00024957 L21,36.4614876 C21,37.0137723 20.5522847,37.4614876 20,37.4614876 L4,37.4614876 C3.44771525,37.4614876 3,37.0137723 3,36.4614876 L3,8.11136069 C3,7.71617197 3.23273352,7.35805048 3.59386153,7.19754914 L19.5938615,0.0864380258 C20.0985457,-0.137866055 20.6895075,0.0894269258 20.9138115,0.594111108 Z M16,27.4614876 L8,27.4614876 C7.44771525,27.4614876 7,27.9092028 7,28.4614876 L7,28.4614876 L7,30.4614876 C7,31.0137723 7.44771525,31.4614876 8,31.4614876 L8,31.4614876 L16,31.4614876 C16.5522847,31.4614876 17,31.0137723 17,30.4614876 L17,30.4614876 L17,28.4614876 C17,27.9092028 16.5522847,27.4614876 16,27.4614876 L16,27.4614876 Z M16,19.4614876 L8,19.4614876 C7.44771525,19.4614876 7,19.9092028 7,20.4614876 L7,20.4614876 L7,22.4614876 C7,23.0137723 7.44771525,23.4614876 8,23.4614876 L8,23.4614876 L16,23.4614876 C16.5522847,23.4614876 17,23.0137723 17,22.4614876 L17,22.4614876 L17,20.4614876 C17,19.9092028 16.5522847,19.4614876 16,19.4614876 L16,19.4614876 Z M16,11.4614876 L8,11.4614876 C7.44771525,11.4614876 7,11.9092028 7,12.4614876 L7,12.4614876 L7,14.4614876 C7,15.0137723 7.44771525,15.4614876 8,15.4614876 L8,15.4614876 L16,15.4614876 C16.5522847,15.4614876 17,15.0137723 17,14.4614876 L17,14.4614876 L17,12.4614876 C17,11.9092028 16.5522847,11.4614876 16,11.4614876 L16,11.4614876 Z" id="形状结合"></path>
            <path d="M26.5734623,3.56291124 L34.5734623,9.16291124 C34.840789,9.35003991 35,9.65582936 35,9.98214316 L35,36.4614876 C35,37.0137723 34.5522847,37.4614876 34,37.4614876 L26,37.4614876 C25.4477153,37.4614876 25,37.0137723 25,36.4614876 L25,4.38214316 C25,3.82985841 25.4477153,3.38214316 26,3.38214316 C26.2051721,3.38214316 26.4053788,3.44525276 26.5734623,3.56291124 Z" id="矩形备份-2" opacity="0.600000024"></path>
        </g>
    </g>
</svg>