<?xml version="1.0" encoding="UTF-8"?>
<svg width="48px" height="48px" viewBox="0 0 48 48" version="1.1" xmlns="http://www.w3.org/2000/svg" xmlns:xlink="http://www.w3.org/1999/xlink">
    <title>供应商确认</title>
    <g id="供应商确认" stroke="none" stroke-width="1" fill="none" fill-rule="evenodd">
        <g id="编组" transform="translate(5.000000, 5.000000)" fill="#131415">
            <path d="M25,23 C25.5522847,23 26,23.4477153 26,24 L26,25 L32.5,25 C36.0898509,25 39,27.9101491 39,31.5 L39,37 C39,37.5522847 38.5522847,38 38,38 L1,38 C0.44771525,38 0,37.5522847 0,37 L0,31.5 C0,27.9101491 2.91014913,25 6.5,25 L12,25 L12,24 C12,23.4477153 12.4477153,23 13,23 L25,23 Z" id="路径" opacity="0.600000024"></path>
            <path d="M19,0 C24.5228475,0 29,4.4771525 29,10 C29,15.5228475 24.5228475,20 19,20 C13.4771525,20 9,15.5228475 9,10 C9,4.4771525 13.4771525,0 19,0 Z M25.1568542,5.96446609 C24.7963703,5.60398213 24.2291392,5.5762526 23.836848,5.88127749 L23.7426407,5.96446609 L18.086,11.621 L15.2573593,8.79289322 C14.8968754,8.43240926 14.3296443,8.40467972 13.9373531,8.70970461 L13.8431458,8.79289322 L12.4289322,10.2071068 C12.0684482,10.5675907 12.0407187,11.1348218 12.3457436,11.527113 L12.4289322,11.6213203 L17.3786797,16.5710678 C17.7391636,16.9315518 18.3063947,16.9592813 18.6986859,16.6542564 L18.7928932,16.5710678 L26.5710678,8.79289322 C26.9315518,8.43240926 26.9592813,7.8651782 26.6542564,7.47288699 L26.5710678,7.37867966 L25.1568542,5.96446609 Z" id="形状"></path>
        </g>
    </g>
</svg>