<?xml version="1.0" encoding="UTF-8"?>
<svg width="48px" height="48px" viewBox="0 0 48 48" version="1.1" xmlns="http://www.w3.org/2000/svg" xmlns:xlink="http://www.w3.org/1999/xlink">
    <title>入库</title>
    <g id="入库" stroke="none" stroke-width="1" fill="none" fill-rule="evenodd">
        <g id="编组-2" transform="translate(3.801408, 4.292061)">
            <path d="M20.83183,0.226042701 L40.0304221,15.9339818 C40.457867,16.2837093 40.5208692,16.913732 40.1711417,17.3411768 C39.9812127,17.5733123 39.6971175,17.7079391 39.3971844,17.7079391 L37.198,17.707 L37.1985922,38.7079391 C37.1985922,39.2602238 36.7508769,39.7079391 36.1985922,39.7079391 L4.19859218,39.7079391 C3.64630743,39.7079391 3.19859218,39.2602238 3.19859218,38.7079391 L3.198,17.707 L1,17.7079391 C0.44771525,17.7079391 0,17.2602238 0,16.7079391 C0,16.4080059 0.134626777,16.1239107 0.36676221,15.9339818 L19.5653544,0.226042701 C19.9337203,-0.0753475669 20.4634641,-0.0753475669 20.83183,0.226042701 Z M26.1985922,11.7079391 L14.1985922,11.7079391 C13.6857563,11.7079391 13.263085,12.0939792 13.2053199,12.5913179 L13.1985922,12.7079391 L13.198,24.707 L10.4825723,24.7079391 C10.2730856,24.7079391 10.0699982,24.7736916 9.90122215,24.8942856 L9.80429715,24.9731356 C9.4296934,25.3189237 9.3793149,25.8845932 9.66841696,26.2887622 L9.74777381,26.3862192 L19.4637887,36.911902 C19.481869,36.9314889 19.5007251,36.9503451 19.5203121,36.9684253 C19.8949158,37.3142134 20.4628019,37.3192497 20.8425884,36.9987894 L20.9333956,36.911902 L30.6494105,26.3862192 C30.8199234,26.2014969 30.9146071,25.9593291 30.9146071,25.7079391 C30.9146071,25.1951032 30.5285669,24.7724319 30.0312282,24.7146668 L29.9146071,24.7079391 L27.198,24.707 L27.1985922,12.7079391 C27.1985922,12.1951032 26.812552,11.7724319 26.3152133,11.7146668 L26.1985922,11.7079391 Z" id="形状" fill="#131415"></path>
            <g id="编组" transform="translate(20.198592, 24.707939) rotate(-180.000000) translate(-20.198592, -24.707939) translate(14.198592, 15.707939)">
                <rect id="矩形" fill="#131415" opacity="0.600000024" x="3" y="4" width="6" height="14" rx="1"></rect>
                <path d="M6.3796283,0.442899685 L11.292518,6.17460431 C11.4722291,6.38426723 11.4479483,6.69991723 11.2382854,6.8796283 C11.1476638,6.95730392 11.0322453,7 10.9128897,7 L1.08711032,7 C0.810967943,7 0.587110318,6.77614237 0.587110318,6.5 C0.587110318,6.38064436 0.629806399,6.26522587 0.707482017,6.17460431 L5.6203717,0.442899685 C5.80008277,0.233236763 6.11573277,0.208955995 6.32539569,0.38866707 C6.34483509,0.405329416 6.36296595,0.423460281 6.3796283,0.442899685 Z" id="三角形备份" fill="#717273"></path>
            </g>
        </g>
    </g>
</svg>