<?xml version="1.0" encoding="UTF-8"?>
<svg width="48px" height="48px" viewBox="0 0 48 48" version="1.1" xmlns="http://www.w3.org/2000/svg" xmlns:xlink="http://www.w3.org/1999/xlink">
    <title>出库</title>
    <g id="出库" stroke="none" stroke-width="1" fill="none" fill-rule="evenodd">
        <g id="编组" transform="translate(3.801408, 4.292061)" fill="#131415">
            <g id="路径-2">
                <path d="M20.83183,0.226042701 L40.0304221,15.9339818 C40.457867,16.2837093 40.5208692,16.913732 40.1711417,17.3411768 C39.9812127,17.5733123 39.6971175,17.7079391 39.3971844,17.7079391 L37.198,17.707 L37.1985922,38.7079391 C37.1985922,39.2602238 36.7508769,39.7079391 36.1985922,39.7079391 L28.1985922,39.7079391 C27.6463074,39.7079391 27.1985922,39.2602238 27.1985922,38.7079391 L27.197,30.707 L29.9146071,30.7079391 C30.1240988,30.7079391 30.3271862,30.6421865 30.4959622,30.5215925 L30.5928872,30.4427425 C30.967491,30.0969544 31.0178695,29.5312849 30.7287674,29.1271159 L30.6494105,29.029659 L20.9333956,18.5039761 C20.9153154,18.4843892 20.8964592,18.465533 20.8768723,18.4474528 C20.5022685,18.1016647 19.9343824,18.0966284 19.5545959,18.4170887 L19.4637887,18.5039761 L9.74777381,29.029659 C9.57726096,29.2143812 9.48257726,29.456549 9.48257726,29.7079391 C9.48257726,30.2207749 9.86861745,30.6434462 10.3659561,30.7012113 L10.4825773,30.7079391 L13.197,30.707 L13.1985922,38.7079391 C13.1985922,39.2602238 12.7508769,39.7079391 12.1985922,39.7079391 L4.19859218,39.7079391 C3.64630743,39.7079391 3.19859218,39.2602238 3.19859218,38.7079391 L3.198,17.707 L1,17.7079391 C0.44771525,17.7079391 0,17.2602238 0,16.7079391 C0,16.4080059 0.134626777,16.1239107 0.36676221,15.9339818 L19.5653544,0.226042701 C19.9337203,-0.0753475669 20.4634641,-0.0753475669 20.83183,0.226042701 Z" id="路径"></path>
            </g>
            <path d="M20.5239879,22.0966061 L20.5782205,22.1508387 L20.5782205,22.1508387 L25.4911102,27.8825434 C25.6708212,28.0922063 25.6465405,28.4078563 25.4368775,28.5875674 C25.346256,28.665243 25.2308375,28.7079391 25.1114819,28.7079391 L23.1977025,28.7072254 L23.1985922,38.7079391 C23.1985922,39.2602238 22.7508769,39.7079391 22.1985922,39.7079391 L18.1985922,39.7079391 C17.6463074,39.7079391 17.1985922,39.2602238 17.1985922,38.7079391 L17.1977025,28.7072254 L15.2857025,28.7079391 C15.0095601,28.7079391 14.7857025,28.4840814 14.7857025,28.2079391 C14.7857025,28.0885834 14.8283986,27.9731649 14.9060742,27.8825434 L19.8189639,22.1508387 C19.998675,21.9411758 20.3143249,21.916895 20.5239879,22.0966061 Z" id="路径" opacity="0.600000024"></path>
        </g>
    </g>
</svg>