<?xml version="1.0" encoding="UTF-8"?>
<svg width="48px" height="48px" viewBox="0 0 48 48" version="1.1" xmlns="http://www.w3.org/2000/svg" xmlns:xlink="http://www.w3.org/1999/xlink">
    <title>分配制样</title>
    <g id="分配制样" stroke="none" stroke-width="1" fill="none" fill-rule="evenodd">
        <g id="编组" transform="translate(5.000000, 5.000000)" fill="#131415">
            <path d="M14,12 C13.4477153,12 13,11.5522847 13,11 L13,11 L13,1 C13,0.44771525 13.4477153,9.52302787e-16 14,9.18485099e-16 L14,9.18485099e-16 L24,-9.18485099e-16 C24.5522847,-9.52302787e-16 25,0.44771525 25,1 L25,1 L25,11 C25,11.5522847 24.5522847,12 24,12 L24,12 L21,12 L8.003,25.999 L11,26 C11.5128358,26 11.9355072,26.3860402 11.9932723,26.8833789 L12,27 L12,37 C12,37.5522847 11.5522847,38 11,38 L11,38 L1,38 C0.44771525,38 1.1324888e-15,37.5522847 1.1324888e-15,37 L1.1324888e-15,37 L-7.044814e-16,27 C-7.044814e-16,26.4477153 0.44771525,26 1,26 L1,26 L4.00286784,26 L17,12 Z" id="形状结合"></path>
            <path d="M20.0018678,15.23 L22.0008678,13.076 L34,26 L37,26 C37.5522847,26 38,26.4477153 38,27 L38,27 L38,37 C38,37.5522847 37.5522847,38 37,38 L37,38 L27,38 C26.4477153,38 26,37.5522847 26,37 L26,37 L26,27 C26,26.4477153 26.4477153,26 27,26 L27,26 L30,26 L20.0018678,15.23 Z M19,12 L18.0018678,13.076 L17.0028678,12 L19,12 Z" id="形状结合" opacity="0.600000024"></path>
        </g>
    </g>
</svg>