<?xml version="1.0" encoding="UTF-8"?>
<svg width="48px" height="48px" viewBox="0 0 48 48" version="1.1" xmlns="http://www.w3.org/2000/svg" xmlns:xlink="http://www.w3.org/1999/xlink">
    <title>分配制版</title>
    <g id="分配制版" stroke="none" stroke-width="1" fill="none" fill-rule="evenodd">
        <g id="编组" transform="translate(2.000000, 8.000000)" fill="#131415">
            <path d="M32,1 C32,0.44771525 32.4477153,1.01453063e-16 33,0 L43,0 C43.5522847,-1.01453063e-16 44,0.44771525 44,1 L44,11 C44,11.5522847 43.5522847,12 43,12 L33,12 C32.4477153,12 32,11.5522847 32,11 L32,8 L12,18 L12,21 C12,21.5522847 11.5522847,22 11,22 L1,22 C0.44771525,22 6.76353751e-17,21.5522847 0,21 L0,11 C-6.76353751e-17,10.4477153 0.44771525,10 1,10 L11,10 C11.5522847,10 12,10.4477153 12,11 L12,14 L32,4 L32,1 Z" id="形状结合"></path>
            <path d="M14,19 L18,17 L32,24 L32,21 C32,20.4477153 32.4477153,20 33,20 L43,20 C43.5522847,20 44,20.4477153 44,21 L44,31 C44,31.5522847 43.5522847,32 43,32 L33,32 C32.4477153,32 32,31.5522847 32,31 L32,28 L14,19 Z M12,14 L14,15 L12,16 L12,14 Z" id="形状结合" opacity="0.600000024"></path>
        </g>
    </g>
</svg>