<?xml version="1.0" encoding="UTF-8"?>
<svg width="48px" height="48px" viewBox="0 0 48 48" version="1.1" xmlns="http://www.w3.org/2000/svg" xmlns:xlink="http://www.w3.org/1999/xlink">
    <title>制工艺单</title>
    <g id="制工艺单" stroke="none" stroke-width="1" fill="none" fill-rule="evenodd">
        <g id="编组" transform="translate(5.000000, 5.000000)" fill="#131415">
            <path d="M28,18 C33.5228475,18 38,22.4771525 38,28 C38,33.5228475 33.5228475,38 28,38 C22.4771525,38 18,33.5228475 18,28 C18,22.4771525 22.4771525,18 28,18 Z M28.8873969,20.0332038 L27.1076934,20.0332038 C26.6162419,20.0332038 26.2178417,20.4311729 26.2178417,20.9220926 L26.2178417,20.9220926 L26.2178004,22.0686637 C25.2705063,22.3502944 24.4176541,22.8509704 23.7181077,23.5118915 L23.7181077,23.5118915 L22.7223231,22.9380475 C22.2967136,22.6925876 21.7524888,22.8382544 21.506763,23.2634034 L21.506763,23.2634034 L20.6169113,24.8030041 C20.3711855,25.2281531 20.5170101,25.771789 20.9426196,26.0172489 L20.9426196,26.0172489 L21.9367275,26.5911237 C21.8267789,27.0539485 21.7685829,27.5367873 21.7685829,28.0332038 C21.7685829,28.5296202 21.8267789,29.0124591 21.9367275,29.4752839 L21.9367275,29.4752839 L20.9426196,30.0491586 C20.5170101,30.2946185 20.3711855,30.8382544 20.6169113,31.2634034 L20.6169113,31.2634034 L21.506763,32.8030041 C21.7524888,33.2281531 22.2967136,33.3738199 22.7223231,33.12836 L22.7223231,33.12836 L23.7181077,32.554516 C24.4176541,33.2154371 25.2705063,33.7161131 26.2178004,33.9977438 L26.2178004,33.9977438 L26.2178417,35.1443149 C26.2178417,35.6352346 26.6162419,36.0332038 27.1076934,36.0332038 L27.1076934,36.0332038 L28.8873969,36.0332038 C29.3788485,36.0332038 29.7772487,35.6352346 29.7772487,35.1443149 L29.7772487,35.1443149 L29.7778504,33.9975771 C30.7249205,33.7159156 31.5775743,33.2153068 32.2769827,32.554516 L32.2769827,32.554516 L33.2727672,33.12836 C33.6983767,33.3738199 34.2426015,33.2281531 34.4883273,32.8030041 L34.4883273,32.8030041 L35.3781791,31.2634034 C35.6239048,30.8382544 35.4780803,30.2946185 35.0524707,30.0491586 L35.0524707,30.0491586 L34.0583628,29.4752839 C34.1683115,29.0124591 34.2265075,28.5296202 34.2265075,28.0332038 C34.2265075,27.5367873 34.1683115,27.0539485 34.0583628,26.5911237 L34.0583628,26.5911237 L35.0524707,26.0172489 C35.4780803,25.771789 35.6239048,25.2281531 35.3781791,24.8030041 L35.3781791,24.8030041 L34.4883273,23.2634034 C34.2426015,22.8382544 33.6983767,22.6925876 33.2727672,22.9380475 L33.2727672,22.9380475 L32.2769827,23.5118915 C31.5775743,22.8511007 30.7249205,22.3504919 29.7778504,22.0688304 L29.7778504,22.0688304 L29.7772487,20.9220926 C29.7772487,20.4311729 29.3788485,20.0332038 28.8873969,20.0332038 L28.8873969,20.0332038 Z M27.9975452,25.3665371 C29.4718998,25.3665371 30.6671004,26.5604444 30.6671004,28.0332038 C30.6671004,29.5059631 29.4718998,30.6998704 27.9975452,30.6998704 C26.5231905,30.6998704 25.3279899,29.5059631 25.3279899,28.0332038 C25.3279899,26.5604444 26.5231905,25.3665371 27.9975452,25.3665371 Z" id="形状结合" opacity="0.600000024"></path>
            <path d="M31,0 C31.5522847,0 32,0.44771525 32,1 L32,13.235 L32.004045,13.3025148 C32.004045,13.8153506 31.6180048,14.238022 31.1206661,14.2957871 L31.004045,14.3025148 C30.9429516,14.3025148 30.8831377,14.2970362 30.8250679,14.2865437 L30.8247416,14.2850964 L30.7933903,14.2802876 C30.7861266,14.2787302 30.7788923,14.2770939 30.7716881,14.2753796 L30.8247416,14.2850964 C29.9123677,14.0981709 28.9676484,14 28,14 C20.2680135,14 14,20.2680135 14,28 C14,31.1689814 15.0529,34.0920449 16.8279557,36.438446 C16.9365675,36.5990505 17,36.7921175 17,37 C17,37.5128358 16.6139598,37.9355072 16.1166211,37.9932723 L16.009,37.999 L16.009,38 L1,38 C0.44771525,38 0,37.5522847 0,37 L0,1 C0,0.44771525 0.44771525,0 1,0 L31,0 Z M10,20 L5,20 C4.48716416,20 4.06449284,20.3860402 4.00672773,20.8833789 L4,21 L4,22 C4,22.5128358 4.38604019,22.9355072 4.88337887,22.9932723 L5,23 L10,23 C10.5128358,23 10.9355072,22.6139598 10.9932723,22.1166211 L11,22 L11,21 C11,20.4871642 10.6139598,20.0644928 10.1166211,20.0067277 L10,20 Z M13,13 L5,13 C4.48716416,13 4.06449284,13.3860402 4.00672773,13.8833789 L4,14 L4,15 C4,15.5128358 4.38604019,15.9355072 4.88337887,15.9932723 L5,16 L13,16 C13.5128358,16 13.9355072,15.6139598 13.9932723,15.1166211 L14,15 L14,14 C14,13.4871642 13.6139598,13.0644928 13.1166211,13.0067277 L13,13 Z M27,6 L5,6 C4.48716416,6 4.06449284,6.38604019 4.00672773,6.88337887 L4,7 L4,8 C4,8.51283584 4.38604019,8.93550716 4.88337887,8.99327227 L5,9 L27,9 C27.5128358,9 27.9355072,8.61395981 27.9932723,8.11662113 L28,8 L28,7 C28,6.48716416 27.6139598,6.06449284 27.1166211,6.00672773 L27,6 Z" id="形状结合"></path>
        </g>
    </g>
</svg>