<?xml version="1.0" encoding="UTF-8"?>
<svg width="48px" height="48px" viewBox="0 0 48 48" version="1.1" xmlns="http://www.w3.org/2000/svg" xmlns:xlink="http://www.w3.org/1999/xlink">
    <title>制样任务</title>
    <g id="制样任务" stroke="none" stroke-width="1" fill="none" fill-rule="evenodd">
        <g id="编组" transform="translate(8.000000, 2.000000)" fill="#131415">
            <path d="M7.09683081,11.5965145 L2.53930833,11.0657475 C2.20442289,11.0267469 1.9117341,10.8216241 1.76079647,10.5201492 L0.558254612,8.11825496 C0.311003086,7.62440769 0.510908436,7.02362841 1.00475571,6.77637688 C1.07008098,6.74367087 1.13879355,6.71822181 1.2096631,6.70048537 L11.2427811,4.18950832 C11.6878284,4.07812683 12,3.67820053 12,3.21942722 L12,1 C12,0.44771525 12.4477153,1.01453063e-16 13,0 L19,0 C19.5522847,-1.01453063e-16 20,0.44771525 20,1 L20,3.21942722 C20,3.67820053 20.3121716,4.07812683 20.7572189,4.18950832 L30.7903369,6.70048537 C31.3260979,6.83456967 31.6517212,7.37758657 31.5176369,7.91334756 C31.4999005,7.98421712 31.4744514,8.05292968 31.4417454,8.11825496 L30.2392035,10.5201492 C30.0882659,10.8216241 29.7955771,11.0267469 29.4606917,11.0657475 L24.9031692,11.5965145 C24.509279,11.6423868 24.1797077,11.916675 24.0630764,12.295688 L22.0893686,18.7095817 C22.0311047,18.89892 22.0303892,19.1012974 22.0873129,19.2910429 L24.6137956,27.7126521 C24.7724935,28.241645 24.4723101,28.7991284 23.9433172,28.9578263 C23.8500972,28.9857923 23.7532939,29 23.6559693,29 L8.34403065,29 C7.7917459,29 7.34403065,28.5522847 7.34403065,28 C7.34403065,27.9026754 7.35823836,27.8058721 7.38620437,27.7126521 L9.91268712,19.2910429 C9.96961078,19.1012974 9.96889528,18.89892 9.91063138,18.7095817 L7.93692363,12.295688 C7.82029231,11.916675 7.49072097,11.6423868 7.09683081,11.5965145 Z" id="路径"></path>
            <polygon id="路径" opacity="0.600000024" points="14 31 18 31 18 40 23 40 23 44 9 44 9 40 14 40"></polygon>
        </g>
    </g>
</svg>