<?xml version="1.0" encoding="UTF-8"?>
<svg width="48px" height="48px" viewBox="0 0 48 48" version="1.1" xmlns="http://www.w3.org/2000/svg" xmlns:xlink="http://www.w3.org/1999/xlink">
    <title>制版任务</title>
    <g id="制版任务" stroke="none" stroke-width="1" fill="none" fill-rule="evenodd">
        <path d="M20,34.999 L26,35 C26.5128358,35 26.9355072,34.6139598 26.9932723,34.1166211 L27,34 L27,28 L43,28 L43,42 C43,42.5522847 42.5522847,43 42,43 L20,43 L20,34.999 Z M16,43 L6,43 C5.44771525,43 5,42.5522847 5,42 L5,28 L9,28 L9,34 C9,34.5128358 9.38604019,34.9355072 9.88337887,34.9932723 L10,35 L16,34.999 L16,43 Z M31.129,5 L43,16.87 L43,24 L27,24 L27,18 C27,17.4871642 26.6139598,17.0644928 26.1166211,17.0067277 L26,17 L20,16.999 L20,5 L31.129,5 Z M16,16.999 L10,17 C9.48716416,17 9.06449284,17.3860402 9.00672773,17.8833789 L9,18 L9,24 L5,24 L5,6 C5,5.44771525 5.44771525,5 6,5 L16,5 L16,16.999 Z" id="形状" fill="#131415"></path>
        <rect id="矩形备份-5" fill="#131415" opacity="0.600000024" x="13" y="21" width="10" height="10" rx="1"></rect>
    </g>
</svg>