<?xml version="1.0" encoding="UTF-8"?>
<svg width="48px" height="48px" viewBox="0 0 48 48" version="1.1" xmlns="http://www.w3.org/2000/svg" xmlns:xlink="http://www.w3.org/1999/xlink">
    <title>发货</title>
    <g id="发货" stroke="none" stroke-width="1" fill="none" fill-rule="evenodd">
        <g id="编组" transform="translate(2.000000, 8.000000)" fill="#131415">
            <path d="M43,0 C43.5522847,0 44,0.44771525 44,1 L44,27 C44,27.5522847 43.5522847,28 43,28 L40,28 C40,24.6862915 37.3137085,22 34,22 C30.6862915,22 28,24.6862915 28,28 L16,28 C16,24.6862915 13.3137085,22 10,22 C6.6862915,22 4,24.6862915 4,28 L1,28 C0.44771525,28 0,27.5522847 0,27 L0,17.4142112 C0,17.1489961 0.105355721,16.8946434 0.292890336,16.7071073 L10.7070166,6.2928961 C10.8945532,6.10535796 11.1489084,6 11.4141263,6 L16,6 L16,1 C16,0.44771525 16.4477153,0 17,0 L43,0 Z M27.7454806,6.62757601 C27.5657695,6.41791309 27.2501195,6.39363232 27.0404566,6.5733434 L27.0404566,6.5733434 L21.308752,11.4862331 C21.2893126,11.5028954 21.2711817,11.5210263 21.2545194,11.5404657 C21.0748083,11.7501286 21.0990891,12.0657786 21.308752,12.2454897 L21.308752,12.2454897 L27.0404566,17.1583794 C27.1310782,17.236055 27.2464967,17.2787511 27.3658523,17.2787511 C27.6419947,17.2787511 27.8658523,17.0548934 27.8658523,16.7787511 L27.8658523,16.7787511 L27.8658523,14.8649626 L37.8658523,14.8658614 C38.4181371,14.8658614 38.8658523,14.4181461 38.8658523,13.8658614 L38.8658523,13.8658614 L38.8658523,9.86586138 C38.8658523,9.31357663 38.4181371,8.86586138 37.8658523,8.86586138 L37.8658523,8.86586138 L27.8668523,8.86496263 L27.8658523,6.9529717 C27.8658523,6.83361606 27.8231562,6.71819757 27.7454806,6.62757601 Z M15.5,10 L11.2071068,10 C11.1010202,10 10.9984096,10.0337142 10.9135995,10.0952092 L10.8535534,10.1464466 L4.85355339,16.1464466 C4.7597852,16.2402148 4.70710678,16.3673918 4.70710678,16.5 C4.70710678,16.7454599 4.88398194,16.9496084 5.11723115,16.9919443 L5.20710678,17 L15.5,17 C15.7454599,17 15.9496084,16.8231248 15.9919443,16.5898756 L16,16.5 L16,10.5 C16,10.2238576 15.7761424,10 15.5,10 Z" id="形状结合"></path>
            <circle id="椭圆形备份-2" opacity="0.600000024" cx="10" cy="28" r="4"></circle>
            <circle id="椭圆形备份-3" opacity="0.600000024" cx="34" cy="28" r="4"></circle>
        </g>
    </g>
</svg>