<?xml version="1.0" encoding="UTF-8"?>
<svg width="48px" height="48px" viewBox="0 0 48 48" version="1.1" xmlns="http://www.w3.org/2000/svg" xmlns:xlink="http://www.w3.org/1999/xlink">
    <title>备货下单</title>
    <g id="备货下单" stroke="none" stroke-width="1" fill="none" fill-rule="evenodd">
        <g id="编组" transform="translate(8.000000, 2.000000)" fill="#131415">
            <path d="M5,6 C5.55228475,6 6,6.44771525 6,7 L6,10 C6,10.5128358 6.38604019,10.9355072 6.88337887,10.9932723 L7,11 L25,11 C25.5128358,11 25.9355072,10.6139598 25.9932723,10.1166211 L26,10 L26,7 C26,6.44771525 26.4477153,6 27,6 L31,6 C31.5522847,6 32,6.44771525 32,7 L32,43 C32,43.5522847 31.5522847,44 31,44 L1,44 C0.44771525,44 0,43.5522847 0,43 L0,7 C0,6.44771525 0.44771525,6 1,6 L5,6 Z M25,25 L7,25 C6.48716416,25 6.06449284,25.3860402 6.00672773,25.8833789 L6,26 L6,38 C6,38.5128358 6.38604019,38.9355072 6.88337887,38.9932723 L7,39 L25,39 C25.5128358,39 25.9355072,38.6139598 25.9932723,38.1166211 L26,38 L26,26 C26,25.4477153 25.5522847,25 25,25 Z M21,27 C21.5522847,27 22,27.4477153 22,28 C22,28.5522847 21.5522847,29 21,29 L11,29 C10.4477153,29 10,28.5522847 10,28 C10,27.4477153 10.4477153,27 11,27 L21,27 Z M27,19 L5,19 C4.48716416,19 4.06449284,19.3860402 4.00672773,19.8833789 L4,20 L4,22 C4,22.5128358 4.38604019,22.9355072 4.88337887,22.9932723 L5,23 L27,23 C27.5128358,23 27.9355072,22.6139598 27.9932723,22.1166211 L28,22 L28,20 C28,19.4477153 27.5522847,19 27,19 Z" id="形状"></path>
            <path d="M19,0 C19.5522847,0 20,0.44771525 20,1 L20,3 L23,3 C23.5522847,3 24,3.44771525 24,4 L24,8 C24,8.55228475 23.5522847,9 23,9 L9,9 C8.44771525,9 8,8.55228475 8,8 L8,4 C8,3.44771525 8.44771525,3 9,3 L12,3 L12,1 C12,0.44771525 12.4477153,0 13,0 L19,0 Z" id="路径" opacity="0.600000024"></path>
        </g>
    </g>
</svg>