<?xml version="1.0" encoding="UTF-8"?>
<svg width="48px" height="48px" viewBox="0 0 48 48" version="1.1" xmlns="http://www.w3.org/2000/svg" xmlns:xlink="http://www.w3.org/1999/xlink">
    <title>大货主数据</title>
    <g id="大货主数据" stroke="none" stroke-width="1" fill="none" fill-rule="evenodd">
        <g id="编组" transform="translate(5.000000, 5.000000)" fill="#131415">
            <path d="M37,18 C37.5522847,18 38,18.4477153 38,19 L38,37 C38,37.5522847 37.5522847,38 37,38 L1,38 C0.44771525,38 0,37.5522847 0,37 L0,19 C0,18.4477153 0.44771525,18 1,18 L37,18 Z M11,26 L5,26 C4.48716416,26 4.06449284,26.3860402 4.00672773,26.8833789 L4,27 L4,33 C4,33.5128358 4.38604019,33.9355072 4.88337887,33.9932723 L5,34 L11,34 C11.5128358,34 11.9355072,33.6139598 11.9932723,33.1166211 L12,33 L12,27 C12,26.4477153 11.5522847,26 11,26 Z M16,0 C16.5522847,0 17,0.44771525 17,1 L17,13 C17,13.5522847 16.5522847,14 16,14 L1.72317968,14 C1.17089493,14 0.723179678,13.5522847 0.723179678,13 C0.723179678,12.8259731 0.768594996,12.6549588 0.854936536,12.5038611 L7.71207939,0.503861062 C7.89012225,0.192286064 8.22146569,0 8.58032254,0 L16,0 Z" id="形状"></path>
            <path d="M29.5803225,0 L37,0 C37.5522847,-1.01453063e-16 38,0.44771525 38,1 L38,13 C38,13.5522847 37.5522847,14 37,14 L22.7231797,14 C22.1708949,14 21.7231797,13.5522847 21.7231797,13 C21.7231797,12.8259731 21.768595,12.6549588 21.8549365,12.5038611 L28.7120794,0.503861062 C28.8901222,0.192286064 29.2214657,9.54099353e-16 29.5803225,0 Z" id="矩形备份-2" opacity="0.600000024" transform="translate(29.500000, 7.000000) scale(-1, 1) translate(-29.500000, -7.000000) "></path>
        </g>
    </g>
</svg>