<?xml version="1.0" encoding="UTF-8"?>
<svg width="48px" height="48px" viewBox="0 0 48 48" version="1.1" xmlns="http://www.w3.org/2000/svg" xmlns:xlink="http://www.w3.org/1999/xlink">
    <title>尺码组</title>
    <g id="尺码组" stroke="none" stroke-width="1" fill="none" fill-rule="evenodd">
        <g id="编组" transform="translate(1.998449, 8.000000)" fill="#131415">
            <path d="M12.0015508,31.4226581 C12.0015508,31.6988005 11.7776932,31.9226581 11.5015508,31.9226581 L11.4657482,31.9213746 L8.43012933,31.484562 C8.18412563,31.449058 8.00155081,31.2382418 8.00155081,30.9896893 L8.0015332,20.5 C8.0015575,20.2545401 7.82469126,20.0503854 7.59144374,20.0080412 L7.50155081,20 L6.50155081,20 C6.22540357,20 6.00153736,20.2238528 6.00152076,20.5 L6.00155081,30.2447817 C6.00155081,30.520924 5.77769318,30.7447817 5.50155081,30.7447817 C5.4389056,30.7447817 5.3768183,30.7330093 5.3185212,30.7100774 L5.00110168,30.5960228 C4.7371842,30.5009856 4.48157001,30.4018506 4.23479271,30.2988463 L3.81258124,30.1176981 L3.7365211,30.0800655 C1.49648229,29.0453522 0.097687099,27.6714665 0.00631987737,26.1581527 L0.00155080769,26 L0,9.87460947 C2.72902106,12.334794 7.97635624,14 14.0015508,14 L16.0015508,14 C21.1738647,13.6774749 25.579673,12.0586349 28.0020925,9.87551904 L28.0016165,13.5 C28.0015259,13.7454599 28.1783677,13.9496316 28.4116107,13.9919982 L28.5015508,14 L35.0015508,14 C35.5538356,14 36.0015508,14.4477153 36.0015508,15 L36.0015508,31 C36.0015508,31.5522847 35.5538356,32 35.0015508,32 L32.5015508,32 C32.2254084,32 32.0015508,31.7761424 32.0015508,31.5 L32.0015508,26.5 C32.0015508,26.2238576 31.7776932,26 31.5015508,26 L30.5015508,26 C30.2254084,26 30.0015508,26.2238576 30.0015508,26.5 L30.0015508,31.5 C30.0015508,31.7761424 29.7776932,32 29.5015508,32 L26.5015508,32 C26.2254084,32 26.0015508,31.7761424 26.0015508,31.5 L26.0015508,26.5 C26.0015508,26.2238576 25.7776932,26 25.5015508,26 L24.5015508,26 C24.2254084,26 24.0015508,26.2238576 24.0015508,26.5 L24.0015508,31.5 C24.0015508,31.7761424 23.7776932,32 23.5015508,32 L20.5015508,32 C20.2254084,32 20.0015508,31.7761424 20.0015508,31.5 L20.0015508,26.5 C20.0015508,26.2238576 19.7776932,26 19.5015508,26 L18.5015508,26 C18.2254084,26 18.0015508,26.2238576 18.0015508,26.5 L18.0015508,31.5 C18.0015508,31.7761424 17.7776932,32 17.5015508,32 L14.5015508,32 C14.2254084,32 14.0015508,31.7761424 14.0015508,31.5 L14.0015508,26.5 C14.0015508,26.2238576 13.7776932,26 13.5015508,26 L12.5015508,26 C12.2254084,26 12.0015508,26.2238576 12.0015508,26.5 L12.0015508,31.4226581 Z" id="路径"></path>
            <rect id="矩形备份-2" opacity="0.600000024" x="40.0015508" y="14" width="4" height="18" rx="1"></rect>
            <path d="M14.0015508,0 C21.7335373,0 28.0015508,2.6862915 28.0015508,6 C28.0015508,9.3137085 21.7335373,12 14.0015508,12 C6.26956431,12 0.00155080769,9.3137085 0.00155080769,6 C0.00155080769,2.6862915 6.26956431,0 14.0015508,0 Z M14.0015508,4 C11.424222,4 9.33488414,4.8954305 9.33488414,6 C9.33488414,7.1045695 11.424222,8 14.0015508,8 C16.5788796,8 18.6682175,7.1045695 18.6682175,6 C18.6682175,4.8954305 16.5788796,4 14.0015508,4 Z" id="形状结合"></path>
        </g>
    </g>
</svg>