<?xml version="1.0" encoding="UTF-8"?>
<svg width="48px" height="48px" viewBox="0 0 48 48" version="1.1" xmlns="http://www.w3.org/2000/svg" xmlns:xlink="http://www.w3.org/1999/xlink">
    <title>工艺主数据</title>
    <g id="工艺主数据" stroke="none" stroke-width="1" fill="none" fill-rule="evenodd">
        <g id="编组" transform="translate(5.000000, 5.000000)" fill="#131415">
            <circle id="椭圆形备份" cx="32" cy="26" r="6"></circle>
            <circle id="椭圆形备份-2" cx="6" cy="26" r="6"></circle>
            <circle id="椭圆形" cx="19" cy="6" r="6"></circle>
            <path d="M10.830127,7.6339746 L11.830127,9.3660254 C12.1062694,9.84431803 11.9423942,10.4559084 11.4641016,10.7320508 L8,12.7318076 L8,17 C8,17.5522847 7.55228475,18 7,18 L5,18 C4.44771525,18 4,17.5522847 4,17 L4,11 C4,10.4479885 4.55472565,10.1192594 4.79942274,9.96412444 C4.94140315,9.88221121 5.02227062,9.83244151 5.1339746,9.76794919 L9.46410162,7.26794919 C9.94239424,6.99180682 10.5539846,7.15568197 10.830127,7.6339746 Z" id="路径" opacity="0.600000024"></path>
            <path d="M32.830127,7.6339746 L33.830127,9.3660254 C34.1062694,9.84431803 33.9423942,10.4559084 33.4641016,10.7320508 L30,12.7318076 L30,17 C30,17.5522847 29.5522847,18 29,18 L27,18 C26.4477153,18 26,17.5522847 26,17 L26,11 C26,10.4479885 26.5547256,10.1192594 26.7994227,9.96412444 C26.9414032,9.88221121 27.0222706,9.83244151 27.1339746,9.76794919 L31.4641016,7.26794919 C31.9423942,6.99180682 32.5539846,7.15568197 32.830127,7.6339746 Z" id="路径备份" opacity="0.600000024" transform="translate(29.982134, 12.566904) scale(-1, 1) translate(-29.982134, -12.566904) "></path>
            <path d="M21.830127,25.6339746 L22.830127,27.3660254 C23.1062694,27.844318 22.9423942,28.4559084 22.4641016,28.7320508 L19,30.7318076 L19,35 C19,35.5522847 18.5522847,36 18,36 L16,36 C15.4477153,36 15,35.5522847 15,35 L15,29 C15,28.4479885 15.5547256,28.1192594 15.7994227,27.9641244 C15.9414032,27.8822112 16.0222706,27.8324415 16.1339746,27.7679492 L20.4641016,25.2679492 C20.9423942,24.9918068 21.5539846,25.155682 21.830127,25.6339746 Z" id="路径备份-2" opacity="0.600000024" transform="translate(18.982134, 30.566904) scale(-1, 1) rotate(-120.000000) translate(-18.982134, -30.566904) "></path>
        </g>
    </g>
</svg>