<?xml version="1.0" encoding="UTF-8"?>
<svg width="48px" height="48px" viewBox="0 0 48 48" version="1.1" xmlns="http://www.w3.org/2000/svg" xmlns:xlink="http://www.w3.org/1999/xlink">
    <title>开发预审</title>
    <g id="开发预审" stroke="none" stroke-width="1" fill="none" fill-rule="evenodd">
        <g id="编组" transform="translate(7.126003, 2.254871)" fill="#131415">
            <path d="M22.8739968,20.7451289 C28.3968443,20.7451289 32.8739968,25.2222814 32.8739968,30.7451289 C32.8739968,36.2679764 28.3968443,40.7451289 22.8739968,40.7451289 C17.3511493,40.7451289 12.8739968,36.2679764 12.8739968,30.7451289 C12.8739968,25.2222814 17.3511493,20.7451289 22.8739968,20.7451289 Z M23.3741599,23.7381009 L22.3741599,23.7381009 C21.8218752,23.7381009 21.3741599,24.1858161 21.3741599,24.7381009 L21.3741599,24.7381009 L21.3741599,31.2381009 C21.3741599,31.7903856 21.8218752,32.2381009 22.3741599,32.2381009 L22.3741599,32.2381009 L22.7313808,32.2387664 C22.7774859,32.2452788 22.8246014,32.2486469 22.8725037,32.2486469 L22.8725037,32.2486469 L27.8725037,32.2486469 C28.4247884,32.2486469 28.8725037,31.8009316 28.8725037,31.2486469 L28.8725037,31.2486469 L28.8725037,30.2486469 C28.8725037,29.6963621 28.4247884,29.2486469 27.8725037,29.2486469 L27.8725037,29.2486469 L24.3739968,29.2481289 L24.3741599,24.7381009 C24.3741599,24.225265 23.9881197,23.8025937 23.490781,23.7448286 L23.3741599,23.7381009 Z" id="形状结合" opacity="0.600000024"></path>
            <path d="M9.36915401,0.0982561549 L9.47906197,0.153524435 L23.1142041,8.08239778 C23.5708836,8.34795817 23.9039474,8.78341522 24.040676,9.29369333 L26.1405045,17.1282432 C25.0925052,16.8777629 23.9987402,16.7451289 22.8739968,16.7451289 C15.1420103,16.7451289 8.87399681,23.0131424 8.87399681,30.7451289 C8.87399681,35.1565683 10.9143642,39.0914543 14.1028742,41.6575621 L8.4592678,43.169474 C7.9258017,43.3124158 7.37746474,42.9958333 7.23452293,42.4623672 L0.0681532437,15.7171115 C-0.0685753652,15.2068333 0.00213783437,14.6631846 0.264853665,14.2048628 L8.10879648,0.520685967 C8.36383246,0.0757620986 8.9089482,-0.0989574046 9.36915401,0.0982561549 Z M10.8739968,5.74512893 C9.21714256,5.74512893 7.87399681,7.08827468 7.87399681,8.74512893 C7.87399681,10.4019832 9.21714256,11.7451289 10.8739968,11.7451289 C12.5308511,11.7451289 13.8739968,10.4019832 13.8739968,8.74512893 C13.8739968,7.08827468 12.5308511,5.74512893 10.8739968,5.74512893 Z" id="形状结合"></path>
            <path d="M23.5835334,0.169251236 L23.6564346,0.234194601 L32.480265,9.11305933 C32.7758001,9.41043763 32.9416758,9.81266443 32.9416758,10.2319195 L32.9380192,21.0129248 C31.8539825,19.8921623 30.584428,18.9519525 29.1788455,18.2417855 L26.5765076,8.48457843 C26.4347082,7.9528661 26.1096539,7.49132131 25.662432,7.18019012 L25.5089171,7.08216068 L19.8768483,3.79189768 C19.6384125,3.65260312 19.5580426,3.34639216 19.6973372,3.10795634 C19.7186814,3.07142074 19.7445769,3.03774229 19.7744031,3.00772852 L22.5305961,0.234194601 C22.8174919,-0.0544905649 23.2712564,-0.0764578933 23.5835334,0.169251236 Z" id="形状结合" opacity="0.600000024"></path>
        </g>
    </g>
</svg>