<?xml version="1.0" encoding="UTF-8"?>
<svg width="48px" height="48px" viewBox="0 0 48 48" version="1.1" xmlns="http://www.w3.org/2000/svg" xmlns:xlink="http://www.w3.org/1999/xlink">
    <title>异常处理</title>
    <g id="异常处理" stroke="none" stroke-width="1" fill="none" fill-rule="evenodd">
        <g id="编组" transform="translate(5.000000, 5.000000)" fill="#131415">
            <path d="M34,11 C34.5522847,11 35,11.4477153 35,12 L35,37 C35,37.5522847 34.5522847,38 34,38 L4,38 C3.44771525,38 3,37.5522847 3,37 L3,12 C3,11.4477153 3.44771525,11 4,11 L34,11 Z M19,30 C17.8954305,30 17,30.8954305 17,32 C17,33.1045695 17.8954305,34 19,34 C20.1045695,34 21,33.1045695 21,32 C21,30.8954305 20.1045695,30 19,30 Z M21.8392964,15 L16.1691523,15 C16.1183419,15 16.0676054,15.0038725 16.0173837,15.0115839 C15.4714966,15.0954034 15.0969167,15.6058815 15.1807362,16.1517686 L15.1807362,16.1517686 L16.8697564,27.1517686 C16.9446818,27.6397316 17.3644907,28 17.8581724,28 L17.8581724,28 L20.1424322,28 C20.6358499,28 21.0555173,27.6401068 21.1307423,27.1524571 L21.1307423,27.1524571 L22.8276065,16.1524571 C22.8353883,16.1020109 22.8392964,16.0510429 22.8392964,16 C22.8392964,15.4477153 22.3915811,15 21.8392964,15 L21.8392964,15 Z" id="形状结合"></path>
            <rect id="矩形" opacity="0.600000024" x="0" y="0" width="38" height="8" rx="1"></rect>
        </g>
    </g>
</svg>