<?xml version="1.0" encoding="UTF-8"?>
<svg width="48px" height="48px" viewBox="0 0 48 48" version="1.1" xmlns="http://www.w3.org/2000/svg" xmlns:xlink="http://www.w3.org/1999/xlink">
    <title>扣款费</title>
    <g id="扣款费" stroke="none" stroke-width="1" fill="none" fill-rule="evenodd">
        <g id="编组" transform="translate(5.000000, 5.000000)" fill="#131415">
            <path d="M17,0 C26.3888407,0 34,7.61115925 34,17 C34,18.1924197 33.877232,19.3561654 33.6436463,20.4792868 C32.6513738,20.1676987 31.595271,20 30.5,20 C24.7010101,20 20,24.7010101 20,30.5 C20,31.595271 20.1676987,32.6513738 20.4788201,33.6440326 C19.3561654,33.877232 18.1924197,34 17,34 C7.61115925,34 0,26.3888407 0,17 C0,7.61115925 7.61115925,0 17,0 Z M22.1509404,6.08165739 C21.6913499,5.8830141 21.1456936,6.05603811 20.8892757,6.50016698 L20.8892757,6.50016698 L16.992,13.249 L13.0980762,6.50408639 C12.8219338,6.02579377 12.2103434,5.86191861 11.7320508,6.13806099 L11.7320508,6.13806099 L10.8660254,6.63806099 C10.3877328,6.91420336 10.2238576,7.52579377 10.5,8.00408639 L10.5,8.00408639 L13.753,13.638 L11,13.638061 C10.4477153,13.638061 10,14.0857762 10,14.638061 L10,14.638061 L10,15.638061 C10,16.1903457 10.4477153,16.638061 11,16.638061 L11,16.638061 L15,16.638 L15,18.638 L11,18.638061 C10.4477153,18.638061 10,19.0857762 10,19.638061 L10,19.638061 L10,20.638061 C10,21.1903457 10.4477153,21.638061 11,21.638061 L11,21.638061 L15,21.638 L15,26.638061 C15,27.1903457 15.4477153,27.638061 16,27.638061 L16,27.638061 L18,27.638061 C18.5522847,27.638061 19,27.1903457 19,26.638061 L19,26.638061 L19,21.638 L23,21.638061 C23.5522847,21.638061 24,21.1903457 24,20.638061 L24,20.638061 L24,19.638061 C24,19.0857762 23.5522847,18.638061 23,18.638061 L23,18.638061 L19,18.638 L19,16.638 L23,16.638061 C23.5522847,16.638061 24,16.1903457 24,15.638061 L24,15.638061 L24,14.638061 C24,14.0857762 23.5522847,13.638061 23,13.638061 L23,13.638061 L20.232,13.638 L23.4873519,8.00016698 L23.5398361,7.89580625 C23.7384794,7.43621576 23.5654553,6.89055949 23.1213265,6.63414157 L23.1213265,6.63414157 L22.2553011,6.13414157 Z" id="形状结合"></path>
            <path d="M31,22 C35.9705627,22 40,26.0294373 40,31 C40,35.9705627 35.9705627,40 31,40 C26.0294373,40 22,35.9705627 22,31 C22,26.0294373 26.0294373,22 31,22 Z M35,29 L27,29 C26.4477153,29 26,29.4477153 26,30 L26,30 L26,32 C26,32.5522847 26.4477153,33 27,33 L27,33 L35,33 C35.5522847,33 36,32.5522847 36,32 L36,32 L36,30 C36,29.4477153 35.5522847,29 35,29 L35,29 Z" id="形状结合" opacity="0.600000024"></path>
        </g>
    </g>
</svg>