<?xml version="1.0" encoding="UTF-8"?>
<svg width="48px" height="48px" viewBox="0 0 48 48" version="1.1" xmlns="http://www.w3.org/2000/svg" xmlns:xlink="http://www.w3.org/1999/xlink">
    <title>技术总表</title>
    <g id="技术总表" stroke="none" stroke-width="1" fill="none" fill-rule="evenodd">
        <g id="编组" transform="translate(5.000000, 5.000000)" fill="#131415">
            <rect id="矩形" x="0" y="0" width="38" height="6" rx="1"></rect>
            <rect id="矩形备份" x="0" y="10" width="8" height="8" rx="1"></rect>
            <rect id="矩形备份-4" x="10" y="10" width="8" height="8" rx="1"></rect>
            <rect id="矩形备份-7" x="20" y="10" width="8" height="8" rx="1"></rect>
            <rect id="矩形备份-8" x="30" y="10" width="8" height="8" rx="1"></rect>
            <rect id="矩形备份-2" x="0" y="20" width="8" height="8" rx="1"></rect>
            <rect id="矩形备份-5" x="10" y="20" width="8" height="8" rx="1"></rect>
            <rect id="矩形备份-3" x="0" y="30" width="8" height="8" rx="1"></rect>
            <rect id="矩形备份-6" x="10" y="30" width="8" height="8" rx="1"></rect>
            <path d="M30,20 C30.5522847,20 31,20.4477153 31,21 L31.0006762,22.29008 C32.0649772,22.6069491 33.0231747,23.1701341 33.8091578,23.9135237 L34.9282032,23.2679492 C35.4064959,22.9918068 36.0180863,23.155682 36.2942286,23.6339746 L37.2942286,25.3660254 C37.570371,25.844318 37.4064959,26.4559084 36.9282032,26.7320508 L35.811042,27.3776599 C35.9346004,27.8983378 36,28.4415314 36,29 C36,29.5584686 35.9346004,30.1016622 35.811042,30.6223401 L36.9282032,31.2679492 C37.4064959,31.5440916 37.570371,32.155682 37.2942286,32.6339746 L36.2942286,34.3660254 C36.0180863,34.844318 35.4064959,35.0081932 34.9282032,34.7320508 L33.8091578,34.0864763 C33.0231747,34.8298659 32.0649772,35.3930509 31.0006762,35.70992 L31,37 C31,37.5522847 30.5522847,38 30,38 L28,38 C27.4477153,38 27,37.5522847 27,37 L26.9999537,35.7101075 C25.9354009,35.3932731 24.9769803,34.8300126 24.1908422,34.0864763 L23.0717968,34.7320508 C22.5935041,35.0081932 21.9819137,34.844318 21.7057714,34.3660254 L20.7057714,32.6339746 C20.429629,32.155682 20.5935041,31.5440916 21.0717968,31.2679492 L22.188958,30.6223401 C22.0653996,30.1016622 22,29.5584686 22,29 C22,28.4415314 22.0653996,27.8983378 22.188958,27.3776599 L21.0717968,26.7320508 C20.5935041,26.4559084 20.429629,25.844318 20.7057714,25.3660254 L21.7057714,23.6339746 C21.9819137,23.155682 22.5935041,22.9918068 23.0717968,23.2679492 L24.1908422,23.9135237 C24.9769803,23.1699874 25.9354009,22.6067269 26.9999537,22.2898925 L27,21 C27,20.4477153 27.4477153,20 28,20 L30,20 Z M29,26 C27.3431458,26 26,27.3431458 26,29 C26,30.6568542 27.3431458,32 29,32 C30.6568542,32 32,30.6568542 32,29 C32,27.3431458 30.6568542,26 29,26 Z" id="形状结合" opacity="0.600000024"></path>
        </g>
    </g>
</svg>