<?xml version="1.0" encoding="UTF-8"?>
<svg width="48px" height="48px" viewBox="0 0 48 48" version="1.1" xmlns="http://www.w3.org/2000/svg" xmlns:xlink="http://www.w3.org/1999/xlink">
    <title>排单汇总</title>
    <g id="排单汇总" stroke="none" stroke-width="1" fill="none" fill-rule="evenodd">
        <g id="编组" transform="translate(8.000000, 2.000000)" fill="#131415">
            <path d="M5,6 C5.55228475,6 6,6.44771525 6,7 L6,10 C6,10.5128358 6.38604019,10.9355072 6.88337887,10.9932723 L7,11 L25,11 C25.5128358,11 25.9355072,10.6139598 25.9932723,10.1166211 L26,10 L26,7 C26,6.44771525 26.4477153,6 27,6 L31,6 C31.5522847,6 32,6.44771525 32,7 L32,43 C32,43.5522847 31.5522847,44 31,44 L1,44 C0.44771525,44 0,43.5522847 0,43 L0,7 C0,6.44771525 0.44771525,6 1,6 L5,6 Z M7,33 L5,33 C4.48716416,33 4.06449284,33.3860402 4.00672773,33.8833789 L4,34 L4,36 C4,36.5128358 4.38604019,36.9355072 4.88337887,36.9932723 L5,37 L7,37 C7.51283584,37 7.93550716,36.6139598 7.99327227,36.1166211 L8,36 L8,34 C8,33.4871642 7.61395981,33.0644928 7.11662113,33.0067277 L7,33 Z M27,33 L13,33 C12.4871642,33 12.0644928,33.3860402 12.0067277,33.8833789 L12,34 L12,36 C12,36.5128358 12.3860402,36.9355072 12.8833789,36.9932723 L13,37 L27,37 C27.5128358,37 27.9355072,36.6139598 27.9932723,36.1166211 L28,36 L28,34 C28,33.4871642 27.6139598,33.0644928 27.1166211,33.0067277 L27,33 Z M7,25 L5,25 C4.48716416,25 4.06449284,25.3860402 4.00672773,25.8833789 L4,26 L4,28 C4,28.5128358 4.38604019,28.9355072 4.88337887,28.9932723 L5,29 L7,29 C7.51283584,29 7.93550716,28.6139598 7.99327227,28.1166211 L8,28 L8,26 C8,25.4871642 7.61395981,25.0644928 7.11662113,25.0067277 L7,25 Z M27,25 L13,25 C12.4871642,25 12.0644928,25.3860402 12.0067277,25.8833789 L12,26 L12,28 C12,28.5128358 12.3860402,28.9355072 12.8833789,28.9932723 L13,29 L27,29 C27.5128358,29 27.9355072,28.6139598 27.9932723,28.1166211 L28,28 L28,26 C28,25.4871642 27.6139598,25.0644928 27.1166211,25.0067277 L27,25 Z M27,17 L13,17 C12.4871642,17 12.0644928,17.3860402 12.0067277,17.8833789 L12,18 L12,20 C12,20.5128358 12.3860402,20.9355072 12.8833789,20.9932723 L13,21 L27,21 C27.5128358,21 27.9355072,20.6139598 27.9932723,20.1166211 L28,20 L28,18 C28,17.4871642 27.6139598,17.0644928 27.1166211,17.0067277 L27,17 Z M7,17 L5,17 C4.48716416,17 4.06449284,17.3860402 4.00672773,17.8833789 L4,18 L4,20 C4,20.5128358 4.38604019,20.9355072 4.88337887,20.9932723 L5,21 L7,21 C7.51283584,21 7.93550716,20.6139598 7.99327227,20.1166211 L8,20 L8,18 C8,17.4871642 7.61395981,17.0644928 7.11662113,17.0067277 L7,17 Z" id="形状"></path>
            <path d="M19,0 C19.5522847,0 20,0.44771525 20,1 L20,3 L23,3 C23.5522847,3 24,3.44771525 24,4 L24,8 C24,8.55228475 23.5522847,9 23,9 L9,9 C8.44771525,9 8,8.55228475 8,8 L8,4 C8,3.44771525 8.44771525,3 9,3 L12,3 L12,1 C12,0.44771525 12.4477153,0 13,0 L19,0 Z" id="路径" opacity="0.600000024"></path>
        </g>
    </g>
</svg>