<?xml version="1.0" encoding="UTF-8"?>
<svg width="48px" height="48px" viewBox="0 0 48 48" version="1.1" xmlns="http://www.w3.org/2000/svg" xmlns:xlink="http://www.w3.org/1999/xlink">
    <title>收货</title>
    <g id="收货" stroke="none" stroke-width="1" fill="none" fill-rule="evenodd">
        <g id="编组" transform="translate(5.000000, 5.000000)" fill="#131415">
            <path d="M34,11 C34.5522847,11 35,11.4477153 35,12 L35,37 C35,37.5522847 34.5522847,38 34,38 L4,38 C3.44771525,38 3,37.5522847 3,37 L3,12 C3,11.4477153 3.44771525,11 4,11 L34,11 Z M23.7008091,19.2097046 L23.6066017,19.2928932 L17.949961,24.9494271 L15.1213203,22.1213203 C14.7608364,21.7608364 14.1936053,21.7331068 13.8013141,22.0381317 L13.7071068,22.1213203 L12.2928932,23.5355339 C11.9324093,23.8960179 11.9046797,24.4632489 12.2097046,24.8555401 L12.2928932,24.9497475 L17.2426407,29.8994949 C17.6031246,30.2599789 18.1703557,30.2877084 18.5626469,29.9826835 L18.6568542,29.8994949 L26.4350288,22.1213203 C26.7955128,21.7608364 26.8232423,21.1936053 26.5182174,20.8013141 L26.4350288,20.7071068 L25.0208153,19.2928932 C24.6603313,18.9324093 24.0931003,18.9046797 23.7008091,19.2097046 Z" id="形状结合"></path>
            <rect id="矩形" opacity="0.600000024" x="0" y="0" width="38" height="8" rx="1"></rect>
        </g>
    </g>
</svg>