<?xml version="1.0" encoding="UTF-8"?>
<svg width="48px" height="48px" viewBox="0 0 48 48" version="1.1" xmlns="http://www.w3.org/2000/svg" xmlns:xlink="http://www.w3.org/1999/xlink">
    <title>数据字典</title>
    <g id="数据字典" stroke="none" stroke-width="1" fill="none" fill-rule="evenodd">
        <g id="编组" transform="translate(8.000000, 5.000000)" fill="#131415">
            <path d="M31,34 C31.5522847,34 32,34.4477153 32,35 L32,37 C32,37.5522847 31.5522847,38 31,38 L4,38 C1.790861,38 2.705415e-16,36.209139 0,34 L0,4 C-2.705415e-16,1.790861 1.790861,4.05812251e-16 4,0 L12,0 L12,19 C12,19.2163702 12.0701779,19.4269038 12.2,19.6 C12.5058808,20.007841 13.0634893,20.1155105 13.4949748,19.8690296 L13.6,19.8 L20,15 L26.4,19.8 C26.5730962,19.9298221 26.7836298,20 27,20 C27.5128358,20 27.9355072,19.6139598 27.9932723,19.1166211 L28,19 L28,0 L31,0 C31.5522847,-1.01453063e-16 32,0.44771525 32,1 L32,29 C32,29.5128358 31.6139598,29.9355072 31.1166211,29.9932723 L31,30 L6,30 C4.8954305,30 4,30.8954305 4,32 C4,33.1045695 4.8954305,34 6,34 L6,34 L31,34 Z" id="形状结合"></path>
            <path d="M17,0 L23,0 C23.5522847,-1.01453063e-16 24,0.44771525 24,1 L24,13 C24,13.5522847 23.5522847,14 23,14 C22.7836298,14 22.5730962,13.9298221 22.4,13.8 L20,12 L20,12 L17.6,13.8 C17.1581722,14.1313708 16.5313708,14.0418278 16.2,13.6 C16.0701779,13.4269038 16,13.2163702 16,13 L16,1 C16,0.44771525 16.4477153,1.01453063e-16 17,0 Z" id="矩形备份-4" opacity="0.600000024"></path>
        </g>
    </g>
</svg>