<?xml version="1.0" encoding="UTF-8"?>
<svg width="48px" height="48px" viewBox="0 0 48 48" version="1.1" xmlns="http://www.w3.org/2000/svg" xmlns:xlink="http://www.w3.org/1999/xlink">
    <title>核价</title>
    <g id="核价" stroke="none" stroke-width="1" fill="none" fill-rule="evenodd">
        <g id="编组" transform="translate(5.000000, 5.000000)" fill="#131415">
            <path d="M31,0 C31.5522847,0 32,0.44771525 32,1 L32,13.235 L32.004045,13.3025148 C32.004045,13.8153506 31.6180048,14.238022 31.1206661,14.2957871 L31.004045,14.3025148 L30.9134226,14.2984639 L30.9134226,14.2984639 L30.8247416,14.2850964 C29.9123677,14.0981709 28.9676484,14 28,14 C20.2680135,14 14,20.2680135 14,28 C14,31.1689814 15.0529,34.0920449 16.8279557,36.438446 C16.9365675,36.5990505 17,36.7921175 17,37 C17,37.5128358 16.6139598,37.9355072 16.1166211,37.9932723 L16.009,38 L1,38 C0.44771525,38 0,37.5522847 0,37 L0,1 C0,0.44771525 0.44771525,0 1,0 L31,0 Z M13.3947541,4.3519684 L13.327293,4.44653785 L13.2964346,4.49990703 L9.993,10.679 L6.69272419,4.50353567 C6.68303435,4.48540777 6.67274249,4.46760815 6.66186579,4.4501665 C6.4125273,4.05033248 5.90757053,3.90695996 5.49067327,4.09972264 L5.38848242,4.15496223 L4.73364434,4.56332253 C4.35518975,4.79932871 4.20385316,5.2672414 4.35792974,5.67410703 L4.40758168,5.78333672 L7.216,11.038 L4.92429724,11.0386134 C4.45028449,11.0386134 4.05961055,11.3954293 4.00621842,11.8551181 L4,11.9629107 L4,12.8917562 C4,13.3657689 4.35681588,13.7564429 4.81650465,13.809835 L4.92429724,13.8160534 L8.285,13.816 L8.285,15.667 L4.92429724,15.6676801 C4.45028449,15.6676801 4.05961055,16.0244959 4.00621842,16.4841847 L4,16.5919773 L4,17.5208228 C4,17.9948356 4.35681588,18.3855095 4.81650465,18.4389016 L4.92429724,18.44512 L8.285,18.445 L8.28571429,23.0757028 C8.28571429,23.5497155 8.64253017,23.9403894 9.10221894,23.9937816 L9.21001152,24 L10.7899885,24 C11.2640012,24 11.6546752,23.6431841 11.7080673,23.1834953 L11.7142857,23.0757028 L11.714,18.445 L15.0757028,18.44512 C15.5497155,18.44512 15.9403894,18.0883042 15.9937816,17.6286154 L16,17.5208228 L16,16.5919773 C16,16.1179646 15.6431841,15.7272906 15.1834953,15.6738985 L15.0757028,15.6676801 L11.714,15.667 L11.714,13.816 L15.0757028,13.8160534 C15.5497155,13.8160534 15.9403894,13.4592375 15.9937816,12.9995488 L16,12.8917562 L16,11.9629107 C16,11.4888979 15.6431841,11.098224 15.1834953,11.0448319 L15.0757028,11.0386134 L12.77,11.038 L15.5815771,5.77970808 L15.631229,5.67047839 C15.7712986,5.30060054 15.6589607,4.88027057 15.3530395,4.62958885 L15.2555144,4.55969388 L14.6006763,4.15133358 L14.4984855,4.09609399 C14.1545452,3.93706479 13.7506695,4.0068176 13.4798387,4.2606144 L13.3947541,4.3519684 Z" id="形状"></path>
            <path d="M28,18 C33.5228475,18 38,22.4771525 38,28 C38,33.5228475 33.5228475,38 28,38 C22.4771525,38 18,33.5228475 18,28 C18,22.4771525 22.4771525,18 28,18 Z M32.836848,23.8812775 L32.7426407,23.9644661 L27.0857864,29.6213203 L24.2573593,26.7928932 C23.8968754,26.4324093 23.3296443,26.4046797 22.9373531,26.7097046 L22.8431458,26.7928932 L21.4289322,28.2071068 C21.0684482,28.5675907 21.0407187,29.1348218 21.3457436,29.527113 L21.4289322,29.6213203 L26.3786797,34.5710678 C26.7391636,34.9315518 27.3063947,34.9592813 27.6986859,34.6542564 L27.7928932,34.5710678 L35.5710678,26.7928932 C35.9315518,26.4324093 35.9592813,25.8651782 35.6542564,25.472887 L35.5710678,25.3786797 L34.1568542,23.9644661 C33.7963703,23.6039821 33.2291392,23.5762526 32.836848,23.8812775 Z" id="形状结合" opacity="0.600000024"></path>
        </g>
    </g>
</svg>