<?xml version="1.0" encoding="UTF-8"?>
<svg width="48px" height="48px" viewBox="0 0 48 48" version="1.1" xmlns="http://www.w3.org/2000/svg" xmlns:xlink="http://www.w3.org/1999/xlink">
    <title>版房管理</title>
    <g id="版房管理" stroke="none" stroke-width="1" fill="none" fill-rule="evenodd">
        <g id="编组" transform="translate(2.000000, 8.406782)" fill="#131415">
            <path d="M40.080183,17.5130349 C42.289322,17.5130349 44.080183,15.7221739 44.080183,13.5130349 C44.080183,11.3038959 42.289322,9.51303495 40.080183,9.51303495 C38.2166178,9.51303495 36.6507041,10.7874327 36.2063966,12.5122736 L26.5015138,12.5124883 C25.2694931,9.97861687 22.2350783,8.59321799 17,8.59321799 C10.6666058,8.59321799 4.72266116,9.94055353 0.305670361,14.2852179 C0.2537122,14.3377129 0.254147377,14.4223889 0.306642356,14.4743471 C0.331682327,14.499131 0.365490563,14.513033 0.400721831,14.5130328 L36.2061379,14.5127915 L36.2061379,14.5127915 C36.650096,16.2381422 38.2162559,17.5130349 40.080183,17.5130349 Z M38.080183,13.5130349 C38.080183,12.4084654 38.9756135,11.5130349 40.080183,11.5130349 C41.1847525,11.5130349 42.080183,12.4084654 42.080183,13.5130349 C42.080183,14.6176044 41.1847525,15.5130349 40.080183,15.5130349 C38.9756135,15.5130349 38.080183,14.6176044 38.080183,13.5130349 Z" id="形状"></path>
            <path d="M39.3113278,1.17157288 C40.873425,2.73367004 40.873425,5.26632996 39.3113278,6.82842712 C37.9935882,8.14616675 35.9851847,8.35229965 34.4513651,7.44682582 L27.588825,14.3090624 C28.5093724,16.9719503 27.3433421,20.0972305 23.6415827,23.7989899 C23.017653,24.4229196 22.3805763,25.0230118 21.7293726,25.5939365 L13.4755227,25.593 L33.0366025,6.03242899 C32.130521,4.49849599 32.3364781,2.48956837 33.6544736,1.17157288 C35.2165707,-0.390524292 37.7492307,-0.390524292 39.3113278,1.17157288 Z M35.0686871,2.58578644 C34.2876385,3.36683502 34.2876385,4.63316498 35.0686871,5.41421356 C35.8497357,6.19526215 37.1160657,6.19526215 37.8971143,5.41421356 C38.6781628,4.63316498 38.6781628,3.36683502 37.8971143,2.58578644 C37.1160657,1.80473785 35.8497357,1.80473785 35.0686871,2.58578644 Z" id="形状结合"></path>
            <rect id="矩形" opacity="0.600000024" x="0" y="27.593218" width="4" height="4" rx="1"></rect>
            <rect id="矩形备份-3" opacity="0.600000024" x="6" y="27.593218" width="15" height="4" rx="1"></rect>
            <rect id="矩形备份-4" opacity="0.600000024" x="29" y="27.593218" width="15" height="4" rx="1"></rect>
            <rect id="矩形备份" opacity="0.600000024" x="23" y="27.593218" width="4" height="4" rx="1"></rect>
        </g>
    </g>
</svg>