<?xml version="1.0" encoding="UTF-8"?>
<svg width="48px" height="48px" viewBox="0 0 48 48" version="1.1" xmlns="http://www.w3.org/2000/svg" xmlns:xlink="http://www.w3.org/1999/xlink">
    <title>物料主数据</title>
    <g id="物料主数据" stroke="none" stroke-width="1" fill="none" fill-rule="evenodd">
        <g id="编组" transform="translate(5.000000, 5.000000)" fill="#131415">
            <path d="M22,6 L22,31 C22,31.0825505 22.0100027,31.1627648 22.0288621,31.2394969 C22.0096244,31.4901194 22,31.7439358 22,32 C22,34.2515563 22.7441173,36.3293148 23.999844,38.0007673 L1,38 C0.44771525,38 0,37.5522847 0,37 L0,7 C0,6.44771525 0.44771525,6 1,6 L22,6 Z M32,0 C35.3137085,0 38,2.6862915 38,6 C38,6.24217157 37.9856527,6.48099213 37.9577617,6.71565808 C37.9856174,6.80538414 38,6.90101246 38,7 L38.0007673,23.999844 C36.3293148,22.7441173 34.2515563,22 32,22 C29.7488959,22 27.6715198,22.7438185 26.0002399,23.9990875 L26,6 L26.0041385,5.77506174 C26.1224282,2.56557489 28.7616031,0 32,0 Z" id="形状结合"></path>
            <path d="M32,26 C35.3137085,26 38,28.6862915 38,32 C38,35.3137085 35.3137085,38 32,38 C28.6862915,38 26,35.3137085 26,32 C26,28.6862915 28.6862915,26 32,26 Z M32,30 C30.8954305,30 30,30.8954305 30,32 C30,33.1045695 30.8954305,34 32,34 C33.1045695,34 34,33.1045695 34,32 C34,30.8954305 33.1045695,30 32,30 Z" id="形状结合" opacity="0.600000024"></path>
        </g>
    </g>
</svg>