<?xml version="1.0" encoding="UTF-8"?>
<svg width="48px" height="48px" viewBox="0 0 48 48" version="1.1" xmlns="http://www.w3.org/2000/svg" xmlns:xlink="http://www.w3.org/1999/xlink">
    <title>物料清单</title>
    <g id="物料清单" stroke="none" stroke-width="1" fill="none" fill-rule="evenodd">
        <g id="编组" transform="translate(5.000000, 5.000000)" fill="#131415">
            <path d="M31,0 C31.5522847,-1.01453063e-16 32,0.44771525 32,1 L32,16 L15,16 C14.4871642,16 14.0644928,16.3860402 14.0067277,16.8833789 L14,17 L14,25 C14,25.5522847 14.4477153,26 15,26 L15,26 L16,26 L16,38 L1,38 C0.44771525,38 6.76353751e-17,37.5522847 0,37 L0,1 C-6.76353751e-17,0.44771525 0.44771525,1.01453063e-16 1,0 L31,0 Z M9,21 L5,21 C4.44771525,21 4,21.4477153 4,22 L4,22 L4,23 C4,23.5522847 4.44771525,24 5,24 L5,24 L9,24 C9.55228475,24 10,23.5522847 10,23 L10,23 L10,22 C10,21.4477153 9.55228475,21 9,21 L9,21 Z M9,14 L5,14 C4.44771525,14 4,14.4477153 4,15 L4,15 L4,16 C4,16.5522847 4.44771525,17 5,17 L5,17 L9,17 C9.55228475,17 10,16.5522847 10,16 L10,16 L10,15 C10,14.4477153 9.55228475,14 9,14 L9,14 Z M27,7 L5,7 C4.44771525,7 4,7.44771525 4,8 L4,8 L4,9 C4,9.55228475 4.44771525,10 5,10 L5,10 L27,10 C27.5522847,10 28,9.55228475 28,9 L28,9 L28,8 C28,7.44771525 27.5522847,7 27,7 L27,7 Z" id="形状结合"></path>
            <path d="M35.2,26 C35.607841,26 35.9444016,26.3269873 35.9937669,26.7496247 L36,26.8571429 L36,37.1428571 L35.9946178,37.2428181 C35.9522567,37.6335842 35.6645976,37.9441889 35.3009372,37.9932427 L35.2,38 L20.8,38 L20.7067031,37.9942334 C20.3419881,37.9488465 20.0520904,37.6406403 20.0063068,37.2510042 L20,37.1428571 L20,26.8571429 L20.0053822,26.7571819 C20.0477433,26.3664158 20.3354024,26.0558111 20.6990628,26.0067573 L20.8,26 L35.2,26 Z M31.3333333,29 L24.6666667,29 C24.2984768,29 24,29.4477153 24,30 C24,30.5522847 24.2984768,31 24.6666667,31 L24.6666667,31 L31.3333333,31 C31.7015232,31 32,30.5522847 32,30 C32,29.4477153 31.7015232,29 31.3333333,29 L31.3333333,29 Z M37.1666667,20 C37.5940299,20 37.946256,20.3860402 37.9943936,20.8833789 L38,21 L38,23 L37.9943936,23.1166211 C37.9502674,23.5725149 37.6506225,23.9348871 37.2718096,23.9921165 L37.1666667,24 L18.8333333,24 L18.7361491,23.9932723 C18.3562376,23.9403209 18.0542608,23.580747 18.0065696,23.1261715 L18,23 L18,21 L18.0056064,20.8833789 C18.0497326,20.4274851 18.3493775,20.0651129 18.7281904,20.0078835 L18.8333333,20 L37.1666667,20 Z" id="形状结合" opacity="0.600000024"></path>
        </g>
    </g>
</svg>