<?xml version="1.0" encoding="UTF-8"?>
<svg width="48px" height="48px" viewBox="0 0 48 48" version="1.1" xmlns="http://www.w3.org/2000/svg" xmlns:xlink="http://www.w3.org/1999/xlink">
    <title>物流管理</title>
    <g id="物流管理" stroke="none" stroke-width="1" fill="none" fill-rule="evenodd">
        <g id="编组" transform="translate(2.000000, 8.000000)" fill="#131415">
            <path d="M43,0 C43.5522847,0 44,0.44771525 44,1 L44,27 C44,27.5522847 43.5522847,28 43,28 L40,28 C40,24.6862915 37.3137085,22 34,22 C30.6862915,22 28,24.6862915 28,28 L16,28 C16,24.6862915 13.3137085,22 10,22 C6.6862915,22 4,24.6862915 4,28 L1,28 C0.44771525,28 0,27.5522847 0,27 L0,17.4142112 C0,17.1489961 0.105355721,16.8946434 0.292890336,16.7071073 L10.7070166,6.2928961 C10.8945532,6.10535796 11.1489084,6 11.4141263,6 L16,6 L16,1 C16,0.44771525 16.4477153,0 17,0 L43,0 Z M15.5,10 L11.2071068,10 C11.0744985,10 10.9473216,10.0526784 10.8535534,10.1464466 L10.8535534,10.1464466 L4.85355339,16.1464466 C4.7597852,16.2402148 4.70710678,16.3673918 4.70710678,16.5 C4.70710678,16.7761424 4.93096441,17 5.20710678,17 L5.20710678,17 L15.5,17 C15.7761424,17 16,16.7761424 16,16.5 L16,16.5 L16,10.5 C16,10.2238576 15.7761424,10 15.5,10 L15.5,10 Z" id="形状结合"></path>
            <circle id="椭圆形备份-2" opacity="0.600000024" cx="10" cy="28" r="4"></circle>
            <circle id="椭圆形备份-3" opacity="0.600000024" cx="34" cy="28" r="4"></circle>
        </g>
    </g>
</svg>