<?xml version="1.0" encoding="UTF-8"?>
<svg width="48px" height="48px" viewBox="0 0 48 48" version="1.1" xmlns="http://www.w3.org/2000/svg" xmlns:xlink="http://www.w3.org/1999/xlink">
    <title>生产订单</title>
    <g id="生产订单" stroke="none" stroke-width="1" fill="none" fill-rule="evenodd">
        <g id="编组" transform="translate(8.000000, 2.000000)" fill="#131415">
            <path d="M5,6 C5.55228475,6 6,6.44771525 6,7 L6,10 C6,10.5128358 6.38604019,10.9355072 6.88337887,10.9932723 L7,11 L25,11 C25.5128358,11 25.9355072,10.6139598 25.9932723,10.1166211 L26,10 L26,7 C26,6.44771525 26.4477153,6 27,6 L31,6 C31.5522847,6 32,6.44771525 32,7 L32,43 C32,43.5522847 31.5522847,44 31,44 L1,44 C0.44771525,44 0,43.5522847 0,43 L0,7 C0,6.44771525 0.44771525,6 1,6 L5,6 Z M17,18 L15,18 C14.4477153,18 14,18.4477153 14,19 L14,19 L13.9999537,20.2898925 C12.9354009,20.6067269 11.9769803,21.1699874 11.1908422,21.9135237 L11.1908422,21.9135237 L10.0717968,21.2679492 C9.59350415,20.9918068 8.98191374,21.155682 8.70577137,21.6339746 L8.70577137,21.6339746 L7.70577137,23.3660254 C7.42962899,23.844318 7.59350415,24.4559084 8.07179677,24.7320508 L8.07179677,24.7320508 L9.188958,25.3776599 C9.06539962,25.8983378 9,26.4415314 9,27 C9,27.5584686 9.06539962,28.1016622 9.188958,28.6223401 L9.188958,28.6223401 L8.07179677,29.2679492 C7.59350415,29.5440916 7.42962899,30.155682 7.70577137,30.6339746 L7.70577137,30.6339746 L8.70577137,32.3660254 C8.98191374,32.844318 9.59350415,33.0081932 10.0717968,32.7320508 L10.0717968,32.7320508 L11.1908422,32.0864763 C11.9769803,32.8300126 12.9354009,33.3932731 13.9999537,33.7101075 L13.9999537,33.7101075 L14,35 C14,35.5522847 14.4477153,36 15,36 L15,36 L17,36 C17.5522847,36 18,35.5522847 18,35 L18,35 L18.0006762,33.70992 C19.0649772,33.3930509 20.0231747,32.8298659 20.8091578,32.0864763 L20.8091578,32.0864763 L21.9282032,32.7320508 C22.4064959,33.0081932 23.0180863,32.844318 23.2942286,32.3660254 L23.2942286,32.3660254 L24.2942286,30.6339746 C24.570371,30.155682 24.4064959,29.5440916 23.9282032,29.2679492 L23.9282032,29.2679492 L22.811042,28.6223401 C22.9346004,28.1016622 23,27.5584686 23,27 C23,26.4415314 22.9346004,25.8983378 22.811042,25.3776599 L22.811042,25.3776599 L23.9282032,24.7320508 C24.4064959,24.4559084 24.570371,23.844318 24.2942286,23.3660254 L24.2942286,23.3660254 L23.2942286,21.6339746 C23.0180863,21.155682 22.4064959,20.9918068 21.9282032,21.2679492 L21.9282032,21.2679492 L20.8091578,21.9135237 C20.0231747,21.1701341 19.0649772,20.6069491 18.0006762,20.29008 L18.0006762,20.29008 L18,19 C18,18.4477153 17.5522847,18 17,18 L17,18 Z M16,24 C17.6568542,24 19,25.3431458 19,27 C19,28.6568542 17.6568542,30 16,30 C14.3431458,30 13,28.6568542 13,27 C13,25.3431458 14.3431458,24 16,24 Z" id="形状结合"></path>
            <path d="M19,0 C19.5522847,0 20,0.44771525 20,1 L20,3 L23,3 C23.5522847,3 24,3.44771525 24,4 L24,8 C24,8.55228475 23.5522847,9 23,9 L9,9 C8.44771525,9 8,8.55228475 8,8 L8,4 C8,3.44771525 8.44771525,3 9,3 L12,3 L12,1 C12,0.44771525 12.4477153,0 13,0 L19,0 Z" id="路径" opacity="0.600000024"></path>
        </g>
    </g>
</svg>