<?xml version="1.0" encoding="UTF-8"?>
<svg width="48px" height="48px" viewBox="0 0 48 48" version="1.1" xmlns="http://www.w3.org/2000/svg" xmlns:xlink="http://www.w3.org/1999/xlink">
    <title>生产管理</title>
    <g id="生产管理" stroke="none" stroke-width="1" fill="none" fill-rule="evenodd">
        <g id="编组" transform="translate(2.000000, 8.000000)" fill="#131415">
            <rect id="矩形" x="0" y="28" width="44" height="4" rx="1"></rect>
            <path d="M40.9242614,8.11322829 C40.9742665,8.23429323 41,8.36400285 41,8.49498845 L41,25 C41,25.5128358 40.6139598,25.9355072 40.1166211,25.9932723 L40,26 L17.6204766,25.999737 C17.107703,25.9997309 16.6780277,25.6118683 16.6257074,25.1017709 L15.2608856,11.7954255 C15.2157508,11.3553836 15.4650874,10.937972 15.8739413,10.7691157 L23.6182398,7.57072702 L23.6182398,7.57072702 C24.1286953,7.35988671 24.7134211,7.6027728 24.9242614,8.11322829 C24.9742665,8.23429323 25,8.36400285 25,8.49498845 L25,10.3037263 L31.6182398,7.57072702 C32.1286953,7.35988671 32.7134211,7.6027728 32.9242614,8.11322829 C32.9742665,8.23429323 33,8.36400285 33,8.49498845 L33,10.3037263 L39.6182398,7.57072702 C40.1286953,7.35988671 40.7134211,7.6027728 40.9242614,8.11322829 Z M26,16 L22,16 C21.4871642,16 21.0644928,16.3860402 21.0067277,16.8833789 L21,17 L21,21 C21,21.5128358 21.3860402,21.9355072 21.8833789,21.9932723 L22,22 L26,22 C26.5128358,22 26.9355072,21.6139598 26.9932723,21.1166211 L27,21 L27,17 C27,16.4871642 26.6139598,16.0644928 26.1166211,16.0067277 L26,16 Z M36,16 L32,16 C31.4871642,16 31.0644928,16.3860402 31.0067277,16.8833789 L31,17 L31,21 C31,21.5128358 31.3860402,21.9355072 31.8833789,21.9932723 L32,22 L36,22 C36.5128358,22 36.9355072,21.6139598 36.9932723,21.1166211 L37,21 L37,17 C37,16.4871642 36.6139598,16.0644928 36.1166211,16.0067277 L36,16 Z" id="形状" opacity="0.600000024"></path>
            <path d="M13,0 C13.5522847,0 14,0.44771525 14,1 L14,3 C14,3.55228475 13.5522847,4 13,4 L12.74281,4 L14.8869714,24.8979711 C14.9433204,25.4473738 14.5436214,25.9384325 13.9942188,25.9947814 L13.89219,26 L13.89219,26 L4.10781004,26 C3.55552529,26 3.10781004,25.5522847 3.10781004,25 L3.1130286,24.8979711 L3.1130286,24.8979711 L5.25581004,4 L5,4 C4.44771525,4 4,3.55228475 4,3 L4,1 C4,0.44771525 4.44771525,0 5,0 L13,0 Z" id="路径"></path>
        </g>
    </g>
</svg>