<?xml version="1.0" encoding="UTF-8"?>
<svg width="48px" height="48px" viewBox="0 0 48 48" version="1.1" xmlns="http://www.w3.org/2000/svg" xmlns:xlink="http://www.w3.org/1999/xlink">
    <title>用户列表</title>
    <g id="用户列表" stroke="none" stroke-width="1" fill="none" fill-rule="evenodd">
        <g id="编组" transform="translate(5.000000, 5.000000)" fill="#131415">
            <path d="M11.2924473,18.3717381 L11.0422334,18.4446409 C6.96333219,19.7057952 4,23.5068359 4,28 L4,28 L4,32 L1,32 C0.44771525,32 6.76353751e-17,31.5522847 0,31 L0,24 C-5.41083001e-16,19.581722 3.581722,16 8,16 L9.83226775,16.0004128 C10.208208,16.860742 10.7017024,17.6579517 11.2924473,18.3717381 Z M30,16 C34.418278,16 38,19.581722 38,24 L38,31 C38,31.5522847 37.5522847,32 37,32 L34,32 L34,28 C34,23.4154223 30.9148629,19.5514169 26.7074405,18.3708357 C27.2982976,17.6579517 27.791792,16.860742 28.1677323,16.0004128 L30,16 Z M10,0 C12.1369128,0 14.0129093,1.11711568 15.0758518,2.79920936 C11.5280717,4.31450623 9.03450248,7.82144989 9.00035512,11.9148338 C6.16289116,11.4416534 4,8.97341183 4,6 C4,2.6862915 6.6862915,0 10,0 Z M28,0 C31.3137085,0 34,2.6862915 34,6 C34,8.97306317 31.8376161,11.4410745 28.9998085,11.9170737 L29,12 C29,7.87014078 26.4965076,4.32500355 22.9243355,2.799401 C23.9870907,1.11711568 25.8630872,0 28,0 Z" id="形状结合" opacity="0.600000024"></path>
            <circle id="椭圆形备份-3" cx="19" cy="12" r="6"></circle>
            <path d="M16,22 L22,22 C26.418278,22 30,25.581722 30,30 L30,37 C30,37.5522847 29.5522847,38 29,38 L9,38 C8.44771525,38 8,37.5522847 8,37 L8,30 C8,25.581722 11.581722,22 16,22 Z" id="矩形备份-2"></path>
        </g>
    </g>
</svg>