<?xml version="1.0" encoding="UTF-8"?>
<svg width="48px" height="48px" viewBox="0 0 48 48" version="1.1" xmlns="http://www.w3.org/2000/svg" xmlns:xlink="http://www.w3.org/1999/xlink">
    <title>研发主数据</title>
    <g id="研发主数据" stroke="none" stroke-width="1" fill="none" fill-rule="evenodd">
        <g id="编组" transform="translate(8.367581, 2.000000)" fill="#131415">
            <path d="M27.3308069,0 C27.8830916,0 28.3308069,0.44771525 28.3308069,1 C28.3308069,1.08699058 28.319456,1.17360931 28.2970418,1.25766265 L24.8303751,14.2576627 C24.7136409,14.6954161 24.3171909,15 23.8641402,15 L7.40069682,15 C6.94764613,15 6.55119613,14.6954161 6.43446188,14.2576627 L2.96779522,1.25766265 C2.82549207,0.724025829 3.14273068,0.176068213 3.67636751,0.0337650604 C3.76042084,0.0113508373 3.84703958,0 3.93403016,0 L10.7326202,0.000903924701 C11.1962398,2.28269387 13.21378,4 15.6324185,4 C18.0510571,4 20.0685973,2.28269387 20.5322168,0.000903924701 L27.3308069,0 Z" id="路径" opacity="0.600000024"></path>
            <path d="M23.9012007,19 C24.3366784,19 24.722088,19.3202481 24.8541264,19.791814 L31.2177628,42.5190868 C31.3852176,43.1171395 31.0943271,43.7562171 30.5680407,43.9465066 C30.4699963,43.9819565 30.3677248,44 30.264837,44 L25.1357173,44 C24.6426711,44 24.2232033,43.6406347 24.1475572,43.1534262 L21.7782211,27.8934258 L21.7782211,27.8934258 C21.7009206,27.3956576 21.3455832,27.0215441 20.913138,26.9626486 L20.7934375,26.9545455 L18.8243407,26.9545455 C18.7660796,26.9545455 18.7079299,26.9603313 18.6505553,26.9718369 C18.145523,27.0731134 17.7963714,27.5885908 17.8259154,28.1565563 L17.8395571,28.2883924 L20.0999149,42.8465746 C20.1846494,43.3923204 19.8109259,43.9034257 19.2651801,43.9881602 C19.2144183,43.9960417 19.1631246,44 19.1117546,44 L12.1523068,44 C11.6000221,44 11.1523068,43.5522847 11.1523068,43 C11.1523068,42.9486126 11.1562678,42.8973017 11.1641546,42.8465231 L13.4252799,28.2883924 L13.4252799,28.2883924 C13.4303424,28.2557932 13.4341465,28.2229738 13.436685,28.1900285 L13.4404964,28.0909091 C13.4404964,27.5081411 13.0544562,27.0278328 12.5571175,26.9621906 L12.4404964,26.9545455 L10.4713995,26.9545455 C10.0265952,26.9545455 9.64063245,27.2871782 9.51444038,27.7608805 L9.48661592,27.8934258 L7.11647905,43.1534763 C7.0408111,43.640662 6.62135363,44 6.12832673,44 L1,44 L1,44 C0.44771525,44 0,43.4912327 0,42.8636364 C0,42.7467185 0.0158782776,42.6305008 0.04707422,42.5190868 L6.41071058,19.791814 C6.54274904,19.3202481 6.9281586,19 7.36363636,19 L23.9012007,19 Z" id="路径"></path>
        </g>
    </g>
</svg>