<?xml version="1.0" encoding="UTF-8"?>
<svg width="48px" height="48px" viewBox="0 0 48 48" version="1.1" xmlns="http://www.w3.org/2000/svg" xmlns:xlink="http://www.w3.org/1999/xlink">
    <title>确认样评审</title>
    <g id="确认样评审" stroke="none" stroke-width="1" fill="none" fill-rule="evenodd">
        <g id="编组" transform="translate(5.000000, 5.000000)" fill="#131415">
            <path d="M31,0 C31.5522847,0 32,0.44771525 32,1 L32,13.235 L32.004045,13.3025148 C32.004045,13.8153506 31.6180048,14.238022 31.1206661,14.2957871 L31.004045,14.3025148 C30.9429516,14.3025148 30.8831377,14.2970362 30.8250679,14.2865437 L30.8247416,14.2850964 L30.7933903,14.2802876 C30.7861266,14.2787302 30.7788923,14.2770939 30.7716881,14.2753796 L30.8247416,14.2850964 C29.9123677,14.0981709 28.9676484,14 28,14 C20.2680135,14 14,20.2680135 14,28 C14,31.1689814 15.0529,34.0920449 16.8279557,36.438446 C16.9365675,36.5990505 17,36.7921175 17,37 C17,37.5128358 16.6139598,37.9355072 16.1166211,37.9932723 L16.009,37.999 L16.009,38 L1,38 C0.44771525,38 0,37.5522847 0,37 L0,1 C0,0.44771525 0.44771525,0 1,0 L31,0 Z M10,20 L5,20 C4.48716416,20 4.06449284,20.3860402 4.00672773,20.8833789 L4,21 L4,22 C4,22.5128358 4.38604019,22.9355072 4.88337887,22.9932723 L5,23 L10,23 C10.5128358,23 10.9355072,22.6139598 10.9932723,22.1166211 L11,22 L11,21 C11,20.4871642 10.6139598,20.0644928 10.1166211,20.0067277 L10,20 Z M13,13 L5,13 C4.48716416,13 4.06449284,13.3860402 4.00672773,13.8833789 L4,14 L4,15 C4,15.5128358 4.38604019,15.9355072 4.88337887,15.9932723 L5,16 L13,16 C13.5128358,16 13.9355072,15.6139598 13.9932723,15.1166211 L14,15 L14,14 C14,13.4871642 13.6139598,13.0644928 13.1166211,13.0067277 L13,13 Z M27,6 L5,6 C4.48716416,6 4.06449284,6.38604019 4.00672773,6.88337887 L4,7 L4,8 C4,8.51283584 4.38604019,8.93550716 4.88337887,8.99327227 L5,9 L27,9 C27.5128358,9 27.9355072,8.61395981 27.9932723,8.11662113 L28,8 L28,7 C28,6.48716416 27.6139598,6.06449284 27.1166211,6.00672773 L27,6 Z" id="形状结合"></path>
            <path d="M28,18 C33.5228475,18 38,22.4771525 38,28 C38,33.5228475 33.5228475,38 28,38 C22.4771525,38 18,33.5228475 18,28 C18,22.4771525 22.4771525,18 28,18 Z M32.836848,23.8812775 L32.7426407,23.9644661 L27.0857864,29.6213203 L24.2573593,26.7928932 C23.8968754,26.4324093 23.3296443,26.4046797 22.9373531,26.7097046 L22.8431458,26.7928932 L21.4289322,28.2071068 C21.0684482,28.5675907 21.0407187,29.1348218 21.3457436,29.527113 L21.4289322,29.6213203 L26.3786797,34.5710678 C26.7391636,34.9315518 27.3063947,34.9592813 27.6986859,34.6542564 L27.7928932,34.5710678 L35.5710678,26.7928932 C35.9315518,26.4324093 35.9592813,25.8651782 35.6542564,25.472887 L35.5710678,25.3786797 L34.1568542,23.9644661 C33.7963703,23.6039821 33.2291392,23.5762526 32.836848,23.8812775 Z" id="形状结合" opacity="0.600000024"></path>
        </g>
    </g>
</svg>