<?xml version="1.0" encoding="UTF-8"?>
<svg width="48px" height="48px" viewBox="0 0 48 48" version="1.1" xmlns="http://www.w3.org/2000/svg" xmlns:xlink="http://www.w3.org/1999/xlink">
    <title>确认样终审</title>
    <g id="确认样终审" stroke="none" stroke-width="1" fill="none" fill-rule="evenodd">
        <g id="编组" transform="translate(8.000000, 2.000000)" fill="#131415">
            <rect id="矩形" opacity="0.600000024" x="0" y="38" width="32" height="6" rx="1"></rect>
            <path d="M32,33 C32,33.5522847 31.5522847,34 31,34 L1,34 C0.44771525,34 0,33.5522847 0,33 L0,29 C0,26.790861 1.790861,25 4,25 L5,25 C8.86599325,25 12,21.8659932 12,18 C12,16.42017 11.2629724,15.1214744 10.4190237,13.9211445 L10.0987617,13.4752748 L10.0987617,13.4752748 L9.4577024,12.6026332 L9.4577024,12.6026332 C8.53874566,11.3012867 8,9.71355873 8,8 C8,3.581722 11.581722,0 16,0 C20.418278,0 24,3.581722 24,8 C24,9.71355873 23.4612543,11.3012867 22.5439055,12.6030414 L21.6462246,13.8435087 C20.6929466,15.1745592 20,16.3214307 20,18 C20,21.8659932 23.1340068,25 27,25 L28,25 C30.209139,25 32,26.790861 32,29 L32,33 Z" id="路径"></path>
        </g>
    </g>
</svg>