<?xml version="1.0" encoding="UTF-8"?>
<svg width="48px" height="48px" viewBox="0 0 48 48" version="1.1" xmlns="http://www.w3.org/2000/svg" xmlns:xlink="http://www.w3.org/1999/xlink">
    <title>色样评审</title>
    <g id="色样评审" stroke="none" stroke-width="1" fill="none" fill-rule="evenodd">
        <g id="编组" transform="translate(5.000000, 5.000000)" fill="#131415">
            <path d="M19,19 C19,19 23,6.209139 23,4 C23,1.790861 21.209139,0 19,0 C16.790861,0 15,1.790861 15,4 C15,6.209139 19,19 19,19 Z" id="椭圆形"></path>
            <path d="M19,38 C19,38 23,25.209139 23,23 C23,20.790861 21.209139,19 19,19 C16.790861,19 15,20.790861 15,23 C15,25.209139 19,38 19,38 Z" id="椭圆形备份" opacity="0.600000024" transform="translate(19.000000, 28.500000) scale(1, -1) translate(-19.000000, -28.500000) "></path>
            <path d="M28.5,28.5 C28.5,28.5 32.5,15.709139 32.5,13.5 C32.5,11.290861 30.709139,9.5 28.5,9.5 C26.290861,9.5 24.5,11.290861 24.5,13.5 C24.5,15.709139 28.5,28.5 28.5,28.5 Z" id="椭圆形" opacity="0.600000024" transform="translate(28.500000, 19.000000) rotate(-270.000000) translate(-28.500000, -19.000000) "></path>
            <path d="M9.5,28.5 C9.5,28.5 13.5,15.709139 13.5,13.5 C13.5,11.290861 11.709139,9.5 9.5,9.5 C7.290861,9.5 5.5,11.290861 5.5,13.5 C5.5,15.709139 9.5,28.5 9.5,28.5 Z" id="椭圆形备份" transform="translate(9.500000, 19.000000) scale(1, -1) rotate(270.000000) translate(-9.500000, -19.000000) "></path>
            <path d="M12.2824856,21.7824856 C12.2824856,21.7824856 16.2824856,8.99162458 16.2824856,6.78248558 C16.2824856,4.57334658 14.4916246,2.78248558 12.2824856,2.78248558 C10.0733466,2.78248558 8.28248558,4.57334658 8.28248558,6.78248558 C8.28248558,8.99162458 12.2824856,21.7824856 12.2824856,21.7824856 Z" id="椭圆形" transform="translate(12.282486, 12.282486) rotate(-45.000000) translate(-12.282486, -12.282486) "></path>
            <path d="M25.7175144,35.2175144 C25.7175144,35.2175144 29.7175144,22.4266534 29.7175144,20.2175144 C29.7175144,18.0083754 27.9266534,16.2175144 25.7175144,16.2175144 C23.5083754,16.2175144 21.7175144,18.0083754 21.7175144,20.2175144 C21.7175144,22.4266534 25.7175144,35.2175144 25.7175144,35.2175144 Z" id="椭圆形备份" opacity="0.600000024" transform="translate(25.717514, 25.717514) scale(1, -1) rotate(45.000000) translate(-25.717514, -25.717514) "></path>
            <path d="M25.7175144,21.7824856 C25.7175144,21.7824856 29.7175144,8.99162458 29.7175144,6.78248558 C29.7175144,4.57334658 27.9266534,2.78248558 25.7175144,2.78248558 C23.5083754,2.78248558 21.7175144,4.57334658 21.7175144,6.78248558 C21.7175144,8.99162458 25.7175144,21.7824856 25.7175144,21.7824856 Z" id="椭圆形" transform="translate(25.717514, 12.282486) rotate(-315.000000) translate(-25.717514, -12.282486) "></path>
            <path d="M12.2824856,35.2175144 C12.2824856,35.2175144 16.2824856,22.4266534 16.2824856,20.2175144 C16.2824856,18.0083754 14.4916246,16.2175144 12.2824856,16.2175144 C10.0733466,16.2175144 8.28248558,18.0083754 8.28248558,20.2175144 C8.28248558,22.4266534 12.2824856,35.2175144 12.2824856,35.2175144 Z" id="椭圆形备份" transform="translate(12.282486, 25.717514) scale(1, -1) rotate(315.000000) translate(-12.282486, -25.717514) "></path>
        </g>
    </g>
</svg>