<?xml version="1.0" encoding="UTF-8"?>
<svg width="48px" height="48px" viewBox="0 0 48 48" version="1.1" xmlns="http://www.w3.org/2000/svg" xmlns:xlink="http://www.w3.org/1999/xlink">
    <title>角色管理</title>
    <g id="角色管理" stroke="none" stroke-width="1" fill="none" fill-rule="evenodd">
        <g id="编组" transform="translate(5.000000, 5.000000)" fill="#131415">
            <circle id="椭圆形备份-3" cx="14" cy="7" r="7"></circle>
            <path d="M10,18 L18,18 C23.5228475,18 28,22.4771525 28,28 L28,37 C28,37.5522847 27.5522847,38 27,38 L1,38 C0.44771525,38 6.76353751e-17,37.5522847 0,37 L0,28 C-6.76353751e-16,22.4771525 4.4771525,18 10,18 Z" id="矩形备份-2"></path>
            <rect id="矩形备份-3" opacity="0.600000024" x="26" y="6" width="12" height="4" rx="1"></rect>
            <rect id="矩形备份-4" opacity="0.600000024" x="26" y="14" width="12" height="4" rx="1"></rect>
            <rect id="矩形备份-5" opacity="0.600000024" x="32" y="22" width="6" height="4" rx="1"></rect>
            <rect id="矩形备份-6" opacity="0.600000024" x="32" y="30" width="6" height="4" rx="1"></rect>
        </g>
    </g>
</svg>