<?xml version="1.0" encoding="UTF-8"?>
<svg width="48px" height="48px" viewBox="0 0 48 48" version="1.1" xmlns="http://www.w3.org/2000/svg" xmlns:xlink="http://www.w3.org/1999/xlink">
    <title>设计新款</title>
    <g id="设计新款" stroke="none" stroke-width="1" fill="none" fill-rule="evenodd">
        <g id="编组" transform="translate(7.126003, 2.254871)" fill="#131415">
            <path d="M9.36915401,0.0982561549 L9.47906197,0.153524435 L9.47906197,0.153524435 L23.1142041,8.08239778 C23.5708836,8.34795817 23.9039474,8.78341522 24.040676,9.29369333 L31.2070457,36.0389491 C31.3499875,36.5724152 31.033405,37.1207522 30.4999389,37.263694 L8.4592678,43.169474 C7.9258017,43.3124158 7.37746474,42.9958333 7.23452293,42.4623672 L0.0681532437,15.7171115 C-0.0685753652,15.2068333 0.00213783437,14.6631846 0.264853665,14.2048628 L8.10879648,0.520685967 C8.36383246,0.0757620986 8.9089482,-0.0989574046 9.36915401,0.0982561549 Z M20.5698915,24.4308926 L20.4518295,24.4762962 L13.274258,27.7015908 C13.0083388,27.8227314 12.7996691,27.9509815 12.6482488,28.0863411 C12.4968285,28.2217008 12.3866927,28.3584703 12.3178414,28.4966495 C12.2489901,28.6348287 12.2140644,28.7738952 12.2130254,28.9138488 C12.2120644,29.0538024 12.2302723,29.1935981 12.2676881,29.3332358 C12.3838424,29.8325853 12.687182,30.1099086 13.1777068,30.1652054 L13.3161273,30.1747816 L19.8358375,30.3135872 L14.3862279,33.6296298 C14.0813929,33.8210631 13.8878138,34.0325733 13.8054905,34.2641602 C13.7231673,34.4957472 13.7106911,34.7185962 13.768062,34.9327074 C13.8503768,35.2399103 13.9981742,35.4771851 14.2114542,35.6445317 C14.3942656,35.7879717 14.6545105,35.8575177 14.9921889,35.8531698 L15.1674809,35.844838 L23.359042,35.0567502 C23.5665874,35.0410488 23.7288581,34.9551639 23.8458542,34.7990955 C23.9628503,34.6430271 23.9789437,34.4067369 23.8941346,34.0902248 C23.8267861,33.8388769 23.7233905,33.6595476 23.5839478,33.5522367 C23.4677455,33.4628109 23.2896122,33.4228916 23.0495479,33.4324787 L22.8980775,33.4441718 L17.2217568,34.0821243 C16.8770117,34.1246107 16.7124972,34.1212989 16.7282136,34.0721887 C16.7371943,34.0441258 16.7853955,33.9982233 16.8728172,33.9344813 L17.033365,33.8254886 C17.0650256,33.8050932 17.0991374,33.7835829 17.1357005,33.7609576 L17.9825611,33.2455245 L17.9825611,33.2455245 L21.300655,31.2123516 C21.5810155,31.0413339 21.8633024,30.8695229 22.1475156,30.6969186 C22.4368842,30.519607 22.6126269,30.3403144 22.6747437,30.1590407 C22.7368604,29.977767 22.7354917,29.7661108 22.6706377,29.5240722 C22.6132667,29.309961 22.4980221,29.1313122 22.3249037,28.9881257 C22.1864091,28.8735765 22.0230082,28.8040147 21.8347013,28.7794402 L21.6888012,28.7694445 L15.782744,28.7655375 C15.4754175,28.768065 15.3097809,28.7426043 15.2858342,28.6891555 C15.2708675,28.65575 15.3177772,28.6077136 15.4265632,28.5450461 L15.5868071,28.4628223 L15.5868071,28.4628223 L20.9973587,26.0811819 C21.3081797,25.9480099 21.4789329,25.7949981 21.5096184,25.6221464 C21.5403038,25.4492947 21.5282083,25.2604679 21.4733318,25.0556659 C21.3860283,24.7298446 21.2430947,24.5286824 21.044531,24.4521792 C20.9174503,24.4032172 20.7907777,24.3888836 20.6645133,24.4091785 L20.5698915,24.4308926 Z M18.188745,17.3086195 L18.0702261,17.3357876 L9.93538453,19.5155118 C9.63974009,19.5947295 9.45870341,19.7228748 9.3922745,19.8999476 C9.33913138,20.0416059 9.32973114,20.2105184 9.36407379,20.4066851 L9.39803256,20.5589203 L10.4801538,24.5974518 C10.5691595,24.9296254 10.6878337,25.1507902 10.8361764,25.2609461 C10.9845191,25.371102 11.2065127,25.3865711 11.5021571,25.3073535 C11.7978016,25.2281358 11.9823191,25.1037423 12.0557097,24.9341731 C12.1186159,24.7888281 12.1218664,24.5837509 12.0654611,24.3189414 L12.0322871,24.181559 L11.182049,21.0084271 L13.842849,20.2954678 L14.6579533,23.3374786 C14.7329054,23.6172037 14.8445203,23.802784 14.992798,23.8942193 C15.1410757,23.9856546 15.3537978,23.994239 15.6309645,23.9199724 C15.9081312,23.8457058 16.0926812,23.7306727 16.1846147,23.574873 C16.2612259,23.4450399 16.2798907,23.2721771 16.2406091,23.0562847 L16.2100866,22.9215857 L15.3949823,19.879575 L17.7370406,19.2520223 L18.5872788,22.4251542 C18.6552041,22.6786551 18.7656479,22.8598647 18.9186101,22.9687828 C19.0715722,23.077701 19.290085,23.0894183 19.5741483,23.0039347 C19.8582116,22.9184512 20.0410049,22.796862 20.1225284,22.6391671 C20.1904646,22.5077547 20.2065088,22.3430764 20.1706611,22.145132 L20.1429255,22.0223735 L19.0572908,17.9707299 C18.9823387,17.6910047 18.8706913,17.4960642 18.7223486,17.3859083 C18.6206278,17.3103728 18.4864482,17.2787774 18.3198098,17.2911221 L18.188745,17.3086195 Z M15.9905164,8.58486855 L15.8698899,8.60788028 L7.54433677,10.8387055 C7.38267555,10.8820225 7.24412499,10.9936273 7.12868509,11.17352 C7.01324519,11.3534126 6.99897209,11.6055047 7.08586577,11.9297964 C7.17275946,12.254088 7.30667581,12.4664729 7.48761482,12.566951 C7.63236604,12.6473336 7.77669631,12.6801615 7.92060565,12.6654348 L8.02845873,12.6454733 L13.3498074,11.2196222 L8.98597516,17.0811664 C8.9005451,17.1934337 8.82070107,17.3265483 8.74644305,17.4805102 C8.67218503,17.6344722 8.65988279,17.8041079 8.70953633,17.9894174 C8.79643001,18.313709 8.91515849,18.5053367 9.06572177,18.5643005 C9.17864423,18.6085233 9.29216202,18.6246565 9.40627516,18.6127 L9.52058675,18.5913804 L17.8730834,16.3533356 C18.052707,16.3052056 18.1957482,16.1923976 18.3022069,16.0149115 C18.4086656,15.8374253 18.4184481,15.5865364 18.3315544,15.2622448 C18.2446608,14.9379531 18.1062538,14.7267715 17.9163336,14.6286999 C17.7643975,14.5502426 17.6215042,14.5170296 17.4876538,14.529061 L17.3889615,14.5465679 L11.879008,16.0229555 L16.427721,10.0969765 C16.5131511,9.98470922 16.5942365,9.85622737 16.6709772,9.71153092 C16.7477179,9.56683448 16.7612614,9.40183151 16.7116079,9.216522 C16.6222315,8.88296488 16.5000164,8.68730606 16.3449626,8.62954555 C16.2286722,8.58622517 16.1105234,8.57133284 15.9905164,8.58486855 Z" id="形状"></path>
            <path d="M23.5835334,0.169251236 L23.6564346,0.234194601 L32.480265,9.11305933 C32.7758001,9.41043763 32.9416758,9.81266443 32.9416758,10.2319195 L32.9349772,28.5105829 C32.934876,28.7867253 32.7109364,29.0105009 32.434794,29.0103997 C32.2083435,29.0103167 32.0102201,28.8580507 31.9518644,28.6392484 L26.5765076,8.48457843 L26.5765076,8.48457843 C26.4347082,7.9528661 26.1096539,7.49132131 25.662432,7.18019012 L25.5089171,7.08216068 L19.8768483,3.79189768 C19.6384125,3.65260312 19.5580426,3.34639216 19.6973372,3.10795634 C19.7186814,3.07142074 19.7445769,3.03774229 19.7744031,3.00772852 L22.5305961,0.234194601 L22.5305961,0.234194601 C22.8174919,-0.0544905649 23.2712564,-0.0764578933 23.5835334,0.169251236 Z" id="路径" opacity="0.600000024"></path>
        </g>
    </g>
</svg>