<?xml version="1.0" encoding="UTF-8"?>
<svg width="48px" height="48px" viewBox="0 0 48 48" version="1.1" xmlns="http://www.w3.org/2000/svg" xmlns:xlink="http://www.w3.org/1999/xlink">
    <title>设计研发</title>
    <g id="设计研发" stroke="none" stroke-width="1" fill="none" fill-rule="evenodd">
        <g id="编组" transform="translate(2.908117, 5.646159)" fill="#131415">
            <path d="M28.2199952,20.9547611 L29.2829344,22.2375708 L30.8293843,24.1276852 L32.0609959,25.6578129 L33.2279651,27.1337675 L34.106974,28.2671514 L34.7303883,29.0853637 L35.5089141,30.1287611 L36.0499451,30.8721555 L36.5513705,31.5789983 L36.8623773,32.0285912 L37.2920619,32.6685329 L37.6752632,33.2647445 L37.9036331,33.6365951 L38.1094333,33.9870161 L38.2918996,34.3152099 C38.3203237,34.3680123 38.3477437,34.4198553 38.3741437,34.4707224 L38.5201764,34.7640798 L38.6409647,35.0332159 C38.8747728,35.5895285 38.9254377,35.9696664 38.7579821,36.137122 C38.6162889,36.2788153 38.3223201,36.2643394 37.8981932,36.1148845 L37.654076,36.0201047 C37.6112827,36.0021194 37.567447,35.9830505 37.5225854,35.9629138 L37.2412389,35.8294078 C37.143442,35.7807196 37.0416747,35.7278878 36.9360699,35.6710396 L36.6078762,35.4885733 L36.2574551,35.2827731 L35.8856045,35.0544032 L35.4931219,34.8042278 L35.0808049,34.5330111 L34.6494512,34.2415173 L33.9684715,33.7679285 L33.2491457,33.2530147 L32.7496212,32.8880541 L31.9723674,32.3099965 L30.8880114,31.486114 L29.7546275,30.6071051 L28.5785965,29.6790832 L26.7485452,28.2085243 L25.176707,26.9242106 L23.5756211,25.5991352 L28.2199952,20.9547611 Z M28.6984848,4.91881181 L34.3553391,10.5756661 C34.7458634,10.9661903 34.7458634,11.5993553 34.3553391,11.9898796 L14.5563492,31.7888695 C14.1658249,32.1793938 13.5326599,32.1793938 13.1421356,31.7888695 L7.48528137,26.1320152 C7.09475708,25.741491 7.09475708,25.108326 7.48528137,24.7178017 L27.2842712,4.91881181 C27.6747955,4.52828751 28.3079605,4.52828751 28.6984848,4.91881181 Z M11.0986046,1.40667681 L11.633707,1.96977245 L13.5199116,4.03443509 L16.136302,6.95456667 L18.8231262,9.99445046 C18.9095563,10.0928451 18.996377,10.1917426 19.0835706,10.2911246 L12.9119846,16.4627106 L10.359853,14.2120135 L7.25287246,11.4379373 L5.0492427,9.43691167 L4.12182805,8.57026767 L4.02753683,8.47774462 C2.12032033,6.57052813 2.15712833,3.44151123 4.10974979,1.48888977 C6.06237125,-0.463731687 9.19138814,-0.500539683 11.0986046,1.40667681 Z M32.991378,0.625918588 L38.6482323,6.28277284 C39.0387566,6.67329713 39.0387566,7.30646211 38.6482323,7.6969864 L37.2340187,9.11119996 C36.8434944,9.50172425 36.2103294,9.50172425 35.8198052,9.11119996 L30.1629509,3.45434571 C29.7724266,3.06382142 29.7724266,2.43065644 30.1629509,2.04013215 L31.5771645,0.625918588 C31.9676888,0.235394296 32.6008537,0.235394296 32.991378,0.625918588 Z M5.42754715,2.80668714 C4.06071213,4.17352216 4.06071213,6.38959958 5.42754715,7.7564346 C6.79438217,9.12326962 9.0104596,9.12326962 10.3772946,7.7564346 C11.7441296,6.38959958 11.7441296,4.17352216 10.3772946,2.80668714 C9.0104596,1.43985211 6.79438217,1.43985211 5.42754715,2.80668714 Z" id="形状结合"></path>
            <path d="M6.78796018,29.7601614 L10.8858364,36.3167632 C11.0321915,36.5509315 10.9610049,36.8594067 10.7268367,37.0057619 C10.6473709,37.055428 10.5555471,37.0817627 10.4618372,37.0817627 L2.26608485,37.0817627 C1.98994248,37.0817627 1.76608485,36.8579051 1.76608485,36.5817627 C1.76608485,36.4880529 1.79241957,36.396229 1.8420857,36.3167632 L5.93996188,29.7601614 C6.08631704,29.5259931 6.39479224,29.4548065 6.6289605,29.6011617 C6.69334507,29.641402 6.74771983,29.6957768 6.78796018,29.7601614 Z" id="三角形" opacity="0.603148687" transform="translate(6.363961, 33.081763) rotate(-495.000000) translate(-6.363961, -33.081763) "></path>
        </g>
    </g>
</svg>