<?xml version="1.0" encoding="UTF-8"?>
<svg width="48px" height="48px" viewBox="0 0 48 48" version="1.1" xmlns="http://www.w3.org/2000/svg" xmlns:xlink="http://www.w3.org/1999/xlink">
    <title>评审配置</title>
    <g id="评审配置" stroke="none" stroke-width="1" fill="none" fill-rule="evenodd">
        <g id="编组-2" transform="translate(5.000000, 5.000000)" fill="#131415">
            <path d="M8.0003581,22.7478729 L8,37 C8,37.5522847 7.55228475,38 7,38 L5,38 C4.44771525,38 4,37.5522847 4,37 L4.00036082,22.7480579 C4.63949203,22.9125269 5.3095308,23 6,23 C6.6907281,23 7.36101044,22.9124613 8.0003581,22.7478729 Z M34.0003581,21.7478729 L34,37 C34,37.5522847 33.5522847,38 33,38 L31,38 C30.4477153,38 30,37.5522847 30,37 L30.0003608,21.7480579 C30.639492,21.9125269 31.3095308,22 32,22 C32.6907281,22 33.3610104,21.9124613 34.0003581,21.7478729 Z M21.0003581,31.7478729 L21,37 C21,37.5522847 20.5522847,38 20,38 L18,38 C17.4477153,38 17,37.5522847 17,37 L17.0003608,31.7480579 C17.639492,31.9125269 18.3095308,32 19,32 C19.6907281,32 20.3610104,31.9124613 21.0003581,31.7478729 Z M20,0 C20.5522847,-1.01453063e-16 21,0.44771525 21,1 L21.0003581,16.2521271 C20.3610104,16.0875387 19.6907281,16 19,16 C18.3095308,16 17.639492,16.0874731 17.0003608,16.2519421 L17,1 C17,0.44771525 17.4477153,1.01453063e-16 18,0 L20,0 Z M7,0 C7.55228475,-1.01453063e-16 8,0.44771525 8,1 L8.0003581,7.25212715 C7.36101044,7.08753869 6.6907281,7 6,7 C5.3095308,7 4.63949203,7.08747308 4.00036082,7.25194211 L4,1 C4,0.44771525 4.44771525,1.01453063e-16 5,0 L7,0 Z M33,0 C33.5522847,-1.01453063e-16 34,0.44771525 34,1 L34.0003581,6.25212715 C33.3610104,6.08753869 32.6907281,6 32,6 C31.3095308,6 30.639492,6.08747308 30.0003608,6.25194211 L30,1 C30,0.44771525 30.4477153,1.01453063e-16 31,0 L33,0 Z" id="形状结合"></path>
            <g id="编组" opacity="0.600000024" transform="translate(0.000000, 8.000000)">
                <circle id="椭圆形备份" cx="19" cy="16" r="6"></circle>
                <circle id="椭圆形备份-2" cx="32" cy="6" r="6"></circle>
                <circle id="椭圆形" cx="6" cy="7" r="6"></circle>
            </g>
        </g>
    </g>
</svg>