<?xml version="1.0" encoding="UTF-8"?>
<svg width="48px" height="48px" viewBox="0 0 48 48" version="1.1" xmlns="http://www.w3.org/2000/svg" xmlns:xlink="http://www.w3.org/1999/xlink">
    <title>评审模版</title>
    <g id="评审模版" stroke="none" stroke-width="1" fill="none" fill-rule="evenodd">
        <g id="编组-2" transform="translate(4.970563, 5.029437)" fill="#131415">
            <g id="编组" opacity="0.600000024" transform="translate(0.000000, 16.403000)">
                <path d="M34.651,8.40438462 L37.6903285,10.1641713 C38.1032238,10.403216 38.1032238,10.790784 37.6903285,11.0298287 L19.7476131,21.4177165 C19.3347178,21.6567612 18.6652822,21.6567612 18.2523869,21.4177165 L0.309671502,11.0298287 C-0.103223834,10.790784 -0.103223834,10.403216 0.309671502,10.1641713 L3.348,8.40438462 L18.2523869,17.0331011 C18.6239927,17.2482413 19.2033961,17.2697553 19.6165614,17.0976432 L19.7476131,17.0331011 L34.651,8.40438462 Z" id="形状结合"></path>
                <path d="M34.286,2.84217094e-14 L37.6903285,1.97186365 C38.1032238,2.21090832 38.1032238,2.5984763 37.6903285,2.83752097 L19.7476131,13.2254088 C19.3347178,13.4644535 18.6652822,13.4644535 18.2523869,13.2254088 L0.309671502,2.83752097 C-0.103223834,2.5984763 -0.103223834,2.21090832 0.309671502,1.97186365 L3.713,0.001 L18.2523869,8.4177165 C18.6239927,8.6328567 19.2033961,8.65437072 19.6165614,8.48225856 L19.7476131,8.4177165 L34.286,2.84217094e-14 Z" id="形状结合"></path>
            </g>
            <path d="M19.7476131,0.171134251 L37.6903285,10.0868454 C38.1032238,10.3150244 38.1032238,10.6849756 37.6903285,10.9131546 L19.7476131,20.8288657 C19.3347178,21.0570448 18.6652822,21.0570448 18.2523869,20.8288657 L0.309671502,10.9131546 C-0.103223834,10.6849756 -0.103223834,10.3150244 0.309671502,10.0868454 L18.2523869,0.171134251 C18.6652822,-0.0570447504 19.3347178,-0.0570447504 19.7476131,0.171134251 Z" id="矩形"></path>
        </g>
    </g>
</svg>