<?xml version="1.0" encoding="UTF-8"?>
<svg width="48px" height="48px" viewBox="0 0 48 48" version="1.1" xmlns="http://www.w3.org/2000/svg" xmlns:xlink="http://www.w3.org/1999/xlink">
    <title>评审指标</title>
    <g id="评审指标" stroke="none" stroke-width="1" fill="none" fill-rule="evenodd">
        <g id="编组" transform="translate(5.000000, 5.000000)" fill="#131415">
            <path d="M28,18 C33.5228475,18 38,22.4771525 38,28 C38,33.5228475 33.5228475,38 28,38 C24.5130106,38 21.4428716,36.2152515 19.65324,33.5094115 L22.4599463,30.7025975 L22.5541535,30.6192204 C22.913753,30.3396143 23.4203457,30.3396193 23.7798784,30.619293 L23.8740657,30.7025016 L27.4142136,34.2426407 C27.7746975,34.6031246 28.3419286,34.6308542 28.7342198,34.3258293 L28.8284271,34.2426407 L33.5561146,29.4729689 L34.3097076,30.2265619 C34.3795079,30.2963622 34.4684074,30.3439397 34.5652029,30.3632988 C34.8058961,30.4114375 35.0407683,30.2780339 35.128026,30.057617 L35.1535513,29.9710666 L36.2374546,24.5515501 C36.2504008,24.4868191 36.2504008,24.4201651 36.2374546,24.355434 C36.189316,24.1147408 35.9758388,23.9492448 35.7388164,23.9534749 L35.6491062,23.9632017 L30.2295898,25.047105 C30.1327942,25.0664641 30.0438947,25.1140417 29.9740944,25.183842 C29.8005281,25.3574083 29.7812429,25.6268327 29.916239,25.8217009 L29.9740944,25.8909487 L30.7276875,26.6445418 L28.8071826,28.5644067 C28.446566,28.9246648 27.8794096,28.9523363 27.4870638,28.64745 L27.3928399,28.5643002 L23.8786797,25.0502525 C23.7875791,24.959152 23.6832744,24.8893031 23.5721067,24.8410305 L23.4588863,24.7999619 L23.3424714,24.7717981 C23.0700864,24.7229371 22.7813368,24.7875512 22.552233,24.9656406 L22.4579191,25.0489121 L18.0982991,29.4076449 C18.0335069,28.947737 18,28.4777815 18,28 C18,22.4771525 22.4771525,18 28,18 Z" id="路径" opacity="0.600000024"></path>
            <path d="M31,0 C31.5522847,0 32,0.44771525 32,1 L32,13.235 L32.004045,13.3025148 C32.004045,13.8153506 31.6180048,14.238022 31.1206661,14.2957871 L31.004045,14.3025148 C30.9429516,14.3025148 30.8831377,14.2970362 30.8250679,14.2865437 L30.8247416,14.2850964 L30.7933903,14.2802876 C30.7861266,14.2787302 30.7788923,14.2770939 30.7716881,14.2753796 L30.8247416,14.2850964 C29.9123677,14.0981709 28.9676484,14 28,14 C20.2680135,14 14,20.2680135 14,28 C14,31.1689814 15.0529,34.0920449 16.8279557,36.438446 C16.9365675,36.5990505 17,36.7921175 17,37 C17,37.5128358 16.6139598,37.9355072 16.1166211,37.9932723 L16.009,37.999 L16.009,38 L1,38 C0.44771525,38 0,37.5522847 0,37 L0,1 C0,0.44771525 0.44771525,0 1,0 L31,0 Z M10,20 L5,20 C4.48716416,20 4.06449284,20.3860402 4.00672773,20.8833789 L4,21 L4,22 C4,22.5128358 4.38604019,22.9355072 4.88337887,22.9932723 L5,23 L10,23 C10.5128358,23 10.9355072,22.6139598 10.9932723,22.1166211 L11,22 L11,21 C11,20.4871642 10.6139598,20.0644928 10.1166211,20.0067277 L10,20 Z M13,13 L5,13 C4.48716416,13 4.06449284,13.3860402 4.00672773,13.8833789 L4,14 L4,15 C4,15.5128358 4.38604019,15.9355072 4.88337887,15.9932723 L5,16 L13,16 C13.5128358,16 13.9355072,15.6139598 13.9932723,15.1166211 L14,15 L14,14 C14,13.4871642 13.6139598,13.0644928 13.1166211,13.0067277 L13,13 Z M27,6 L5,6 C4.48716416,6 4.06449284,6.38604019 4.00672773,6.88337887 L4,7 L4,8 C4,8.51283584 4.38604019,8.93550716 4.88337887,8.99327227 L5,9 L27,9 C27.5128358,9 27.9355072,8.61395981 27.9932723,8.11662113 L28,8 L28,7 C28,6.48716416 27.6139598,6.06449284 27.1166211,6.00672773 L27,6 Z" id="形状结合"></path>
        </g>
    </g>
</svg>