<?xml version="1.0" encoding="UTF-8"?>
<svg width="48px" height="48px" viewBox="0 0 48 48" version="1.1" xmlns="http://www.w3.org/2000/svg" xmlns:xlink="http://www.w3.org/1999/xlink">
    <title>财务对账</title>
    <g id="财务对账" stroke="none" stroke-width="1" fill="none" fill-rule="evenodd">
        <g id="编组" transform="translate(5.000000, 5.000000)" fill="#131415">
            <path d="M25,8 C25.5522847,8 26,8.44771525 26,9 L26,37 C26,37.5522847 25.5522847,38 25,38 L1,38 C0.44771525,38 6.76353751e-17,37.5522847 0,37 L0,9 C-6.76353751e-17,8.44771525 0.44771525,8 1,8 L25,8 Z M18.1509404,12.4435964 C17.6913499,12.2449531 17.1456936,12.4179771 16.8892757,12.862106 L16.8892757,12.862106 L12.992,19.610939 L9.09807621,12.8660254 C8.82193384,12.3877328 8.21034343,12.2238576 7.73205081,12.5 L7.73205081,12.5 L6.8660254,13 C6.38773278,13.2761424 6.22385763,13.8877328 6.5,14.3660254 L6.5,14.3660254 L9.753,19.999939 L7,20 C6.44771525,20 6,20.4477153 6,21 L6,21 L6,22 C6,22.5522847 6.44771525,23 7,23 L7,23 L11,22.999939 L11,24.999939 L7,25 C6.44771525,25 6,25.4477153 6,26 L6,26 L6,27 C6,27.5522847 6.44771525,28 7,28 L7,28 L11,27.999939 L11,33 C11,33.5522847 11.4477153,34 12,34 L12,34 L14,34 C14.5522847,34 15,33.5522847 15,33 L15,33 L15,27.999939 L19,28 C19.5522847,28 20,27.5522847 20,27 L20,27 L20,26 C20,25.4477153 19.5522847,25 19,25 L19,25 L15,24.999939 L15,22.999939 L19,23 C19.5522847,23 20,22.5522847 20,22 L20,22 L20,21 C20,20.4477153 19.5522847,20 19,20 L19,20 L16.232,19.999939 L19.4873519,14.362106 L19.5398361,14.2577453 C19.7384794,13.7981548 19.5654553,13.2524985 19.1213265,12.9960806 L19.1213265,12.9960806 L18.2553011,12.4960806 Z" id="形状结合"></path>
            <path d="M37,0 C37.5522847,0 38,0.44771525 38,1 L38,29 C38,29.5522847 37.5522847,30 37,30 L31,30 C30.4477153,30 30,29.5522847 30,29 L30,5 C30,4.44771525 29.5522847,4 29,4 L13,4 L13,4 C12.4477153,4 12,3.55228475 12,3 L12,1 C12,0.44771525 12.4477153,0 13,0 L37,0 Z" id="路径" opacity="0.600000024"></path>
        </g>
    </g>
</svg>