<?xml version="1.0" encoding="UTF-8"?>
<svg width="48px" height="48px" viewBox="0 0 48 48" version="1.1" xmlns="http://www.w3.org/2000/svg" xmlns:xlink="http://www.w3.org/1999/xlink">
    <title>财务管理</title>
    <g id="财务管理" stroke="none" stroke-width="1" fill="none" fill-rule="evenodd">
        <g id="编组-2" transform="translate(5.000000, 5.000000)" fill="#131415">
            <path d="M37,8 C37.5522847,8 38,8.44771525 38,9 L38,37 C38,37.5522847 37.5522847,38 37,38 L1,38 C0.44771525,38 6.76353751e-17,37.5522847 0,37 L0,9 C-6.76353751e-17,8.44771525 0.44771525,8 1,8 L37,8 Z M24.1509404,12.4435964 C23.6913499,12.2449531 23.1456936,12.4179771 22.8892757,12.862106 L22.8892757,12.862106 L18.992,19.610939 L15.0980762,12.8660254 C14.8219338,12.3877328 14.2103434,12.2238576 13.7320508,12.5 L13.7320508,12.5 L12.8660254,13 C12.3877328,13.2761424 12.2238576,13.8877328 12.5,14.3660254 L12.5,14.3660254 L15.753,19.999939 L13,20 C12.4477153,20 12,20.4477153 12,21 L12,21 L12,22 C12,22.5522847 12.4477153,23 13,23 L13,23 L17,22.999939 L17,24.999939 L13,25 C12.4477153,25 12,25.4477153 12,26 L12,26 L12,27 C12,27.5522847 12.4477153,28 13,28 L13,28 L17,27.999939 L17,33 C17,33.5522847 17.4477153,34 18,34 L18,34 L20,34 C20.5522847,34 21,33.5522847 21,33 L21,33 L21,27.999939 L25,28 C25.5522847,28 26,27.5522847 26,27 L26,27 L26,26 C26,25.4477153 25.5522847,25 25,25 L25,25 L21,24.999939 L21,22.999939 L25,23 C25.5522847,23 26,22.5522847 26,22 L26,22 L26,21 C26,20.4477153 25.5522847,20 25,20 L25,20 L22.232,19.999939 L25.4873519,14.362106 L25.5398361,14.2577453 C25.7384794,13.7981548 25.5654553,13.2524985 25.1213265,12.9960806 L25.1213265,12.9960806 L24.2553011,12.4960806 Z" id="形状结合"></path>
            <rect id="矩形备份" opacity="0.600000024" x="4" y="0" width="30" height="4" rx="1"></rect>
        </g>
    </g>
</svg>