<?xml version="1.0" encoding="UTF-8"?>
<svg width="48px" height="48px" viewBox="0 0 48 48" version="1.1" xmlns="http://www.w3.org/2000/svg" xmlns:xlink="http://www.w3.org/1999/xlink">
    <title>辅料主数据</title>
    <g id="辅料主数据" stroke="none" stroke-width="1" fill="none" fill-rule="evenodd">
        <g id="编组" transform="translate(5.094731, 8.000000)" fill="#333333">
            <path d="M34.905,10.684 L37.5520597,13.6096105 C37.7731491,13.8539725 37.8596572,14.1915706 37.7833301,14.5121443 L33.0882167,34.2316205 C32.9809624,34.6820886 32.578471,35 32.1154105,35 L5.69512797,35 C5.23206752,35 4.82957606,34.6820886 4.72232175,34.2316205 L0.0272083726,14.5121443 C-0.0491187118,14.1915706 0.0373893456,13.8539725 0.258478808,13.6096105 L2.905,10.684 L2.90526925,15 C2.90526925,15.5128358 3.29130944,15.9355072 3.78864812,15.9932723 L3.90526925,16 L33.9052692,16 C34.4181051,16 34.8407764,15.6139598 34.8985415,15.1166211 L34.9052692,15 L34.905,10.684 Z M12.9052692,20 L10.9052692,20 C10.3529845,20 9.90526925,20.4477153 9.90526925,21 L9.90526925,21 L9.90526925,28 C9.90526925,28.5522847 10.3529845,29 10.9052692,29 L10.9052692,29 L26.9052692,29 L27.0218904,28.9932723 C27.5192291,28.9355072 27.9052692,28.5128358 27.9052692,28 L27.9052692,28 L27.9052692,21 C27.9052692,20.4477153 27.457554,20 26.9052692,20 L26.9052692,20 L24.9052692,20 C24.3529845,20 23.9052692,20.4477153 23.9052692,21 L23.9052692,21 L23.9052692,25 L13.9052692,25 L13.9052692,21 C13.9052692,20.4477153 13.457554,20 12.9052692,20 L12.9052692,20 Z" id="形状结合"></path>
            <rect id="矩形" opacity="0.600000024" x="10.9052692" y="0" width="16" height="4" rx="1"></rect>
            <rect id="矩形备份" opacity="0.600000024" x="6.90526925" y="8" width="24" height="4" rx="1"></rect>
        </g>
    </g>
</svg>