<?xml version="1.0" encoding="UTF-8"?>
<svg width="48px" height="48px" viewBox="0 0 48 48" version="1.1" xmlns="http://www.w3.org/2000/svg" xmlns:xlink="http://www.w3.org/1999/xlink">
    <title>退货</title>
    <g id="退货" stroke="none" stroke-width="1" fill="none" fill-rule="evenodd">
        <g id="编组" transform="translate(5.000000, 5.000000)" fill="#131415">
            <path d="M34,11 C34.5522847,11 35,11.4477153 35,12 L35,37 C35,37.5522847 34.5522847,38 34,38 L4,38 C3.44771525,38 3,37.5522847 3,37 L3,12 C3,11.4477153 3.44771525,11 4,11 L34,11 Z M15.027113,18.2097046 C14.6348218,17.9046797 14.0675907,17.9324093 13.7071068,18.2928932 L13.7071068,18.2928932 L12.2928932,19.7071068 L12.2097046,19.8013141 C11.9046797,20.1936053 11.9324093,20.7608364 12.2928932,21.1213203 L12.2928932,21.1213203 L15.828,24.656 L12.2928932,28.1923882 C11.9023689,28.5829124 11.9023689,29.2160774 12.2928932,29.6066017 L12.2928932,29.6066017 L13.7071068,31.0208153 C14.0976311,31.4113396 14.7307961,31.4113396 15.1213203,31.0208153 L15.1213203,31.0208153 L18.656,27.485 L22.1923882,31.0208153 L22.2865955,31.1040039 C22.6788867,31.4090288 23.2461178,31.3812992 23.6066017,31.0208153 L23.6066017,31.0208153 L25.0208153,29.6066017 L25.1040039,29.5123944 C25.4090288,29.1201032 25.3812992,28.5528721 25.0208153,28.1923882 L25.0208153,28.1923882 L21.485,24.656 L25.0208153,21.1213203 C25.4113396,20.7307961 25.4113396,20.0976311 25.0208153,19.7071068 L25.0208153,19.7071068 L23.6066017,18.2928932 C23.2160774,17.9023689 22.5829124,17.9023689 22.1923882,18.2928932 L22.1923882,18.2928932 L18.656,21.828 L15.1213203,18.2928932 Z" id="形状结合"></path>
            <rect id="矩形" opacity="0.600000024" x="0" y="0" width="38" height="8" rx="1"></rect>
        </g>
    </g>
</svg>