<?xml version="1.0" encoding="UTF-8"?>
<svg width="48px" height="48px" viewBox="0 0 48 48" version="1.1" xmlns="http://www.w3.org/2000/svg" xmlns:xlink="http://www.w3.org/1999/xlink">
    <title>销售管理</title>
    <g id="销售管理" stroke="none" stroke-width="1" fill="none" fill-rule="evenodd">
        <g id="编组-2" transform="translate(-1.308385, 4.981675)" fill="#131415">
            <path d="M26.6180951,0.116430998 L37.8024559,6.04014864 C38.2961781,6.30164516 38.6580146,6.75773624 38.8003594,7.29799553 L44.2812985,28.1005045 C44.4211726,28.6313865 44.1068978,29.1757651 43.5772123,29.3201041 L33.6737526,32.018 L40.4696176,25.1083771 C40.8228054,24.7491915 40.8499737,24.1898511 40.5511225,23.7998725 L40.4696176,23.7061201 L22.4300395,5.360197 C22.3913502,5.32085067 22.3512125,5.28328251 22.3097526,5.24754216 L25.3024994,0.469416334 C25.580718,0.0251055791 26.1548308,-0.128933675 26.6180951,0.116430998 Z" id="形状结合" opacity="0.600000024"></path>
            <g id="编组" transform="translate(18.956162, 20.069508) rotate(-45.000000) translate(-18.956162, -20.069508) translate(8.338583, 3.879025)">
                <path d="M11.2933033,0.26284586 L20.5866066,8.78170724 C20.9998647,9.16052709 21.2351574,9.69540276 21.2351574,10.2560155 L21.2351574,31.3809659 C21.2351574,31.9332507 20.7874421,32.3809659 20.2351574,32.3809659 L1,32.3809659 C0.44771525,32.3809659 5.69110542e-14,31.9332507 5.68434189e-14,31.3809659 L5.68434189e-14,10.2560155 C5.59404201e-14,9.69540276 0.235292724,9.16052709 0.648550743,8.78170724 L9.94185407,0.26284586 C10.3241753,-0.0876152866 10.9109821,-0.0876152866 11.2933033,0.26284586 Z M16.6959645,23.632699 L4.5391929,23.632699 C3.98690815,23.632699 3.5391929,24.0804142 3.5391929,24.632699 L3.5391929,24.632699 L3.5391929,26.1718919 C3.5391929,26.7241766 3.98690815,27.1718919 4.5391929,27.1718919 L4.5391929,27.1718919 L16.6959645,27.1718919 C17.2482492,27.1718919 17.6959645,26.7241766 17.6959645,26.1718919 L17.6959645,26.1718919 L17.6959645,24.632699 C17.6959645,24.0804142 17.2482492,23.632699 16.6959645,23.632699 L16.6959645,23.632699 Z M10.6175787,8.09887241 C7.6856153,8.09887241 5.30878935,10.4756984 5.30878935,13.4076618 C5.30878935,16.3396252 7.6856153,18.7164511 10.6175787,18.7164511 C13.5495421,18.7164511 15.926368,16.3396252 15.926368,13.4076618 C15.926368,10.4756984 13.5495421,8.09887241 10.6175787,8.09887241 Z" id="形状结合"></path>
            </g>
        </g>
    </g>
</svg>