<?xml version="1.0" encoding="UTF-8"?>
<svg width="48px" height="48px" viewBox="0 0 48 48" version="1.1" xmlns="http://www.w3.org/2000/svg" xmlns:xlink="http://www.w3.org/1999/xlink">
    <title>销售订单</title>
    <g id="销售订单" stroke="none" stroke-width="1" fill="none" fill-rule="evenodd">
        <g id="编组" transform="translate(8.000000, 2.000000)" fill="#131415">
            <path d="M5,6 C5.55228475,6 6,6.44771525 6,7 L6,10 C6,10.5128358 6.38604019,10.9355072 6.88337887,10.9932723 L7,11 L25,11 C25.5128358,11 25.9355072,10.6139598 25.9932723,10.1166211 L26,10 L26,7 C26,6.44771525 26.4477153,6 27,6 L31,6 C31.5522847,6 32,6.44771525 32,7 L32,43 C32,43.5522847 31.5522847,44 31,44 L1,44 C0.44771525,44 0,43.5522847 0,43 L0,7 C0,6.44771525 0.44771525,6 1,6 L5,6 Z M15.7433944,17.7313382 L7.90126822,17.930774 C7.40785449,17.9433222 7.00562873,18.3112004 6.93986573,18.7891339 L6.930774,18.9012682 L6.7313382,26.7433944 C6.71885187,27.2343763 6.8868235,27.7119477 7.19976871,28.0874772 L7.32384949,28.2233444 L17.1161161,38.015611 C17.4792532,38.3787481 18.0486737,38.4086671 18.441286,38.1039633 L18.5355339,38.0208153 L27.0208153,29.5355339 C27.3812992,29.1750499 27.4070434,28.6058335 27.0994525,28.2109762 L27.015611,28.1161161 L17.2233444,18.3238495 C16.8747103,17.9752153 16.4129553,17.7671192 15.9267109,17.7350455 L15.7433944,17.7313382 Z M21.2297755,26.8793986 C21.5898589,26.5947508 22.1022232,26.5946435 22.4664896,26.8779753 L22.5619374,26.9622741 L22.8479458,27.2482826 L22.9262591,27.3361103 C23.2135551,27.6982907 23.2174196,28.2106696 22.9367513,28.5728681 L22.8531501,28.6677004 L17.6677004,33.8531501 L17.5804445,33.9308214 C17.2203611,34.2154692 16.7079968,34.2155765 16.3437304,33.9322447 L16.2482826,33.8479458 L15.9622741,33.5619374 L15.8839609,33.4741097 C15.5966649,33.1119293 15.5928004,32.5995504 15.8734687,32.2373519 L15.9570699,32.1425196 L21.1425196,26.9570699 L21.2297755,26.8793986 Z M11.0416884,22.0416884 C12.4085234,20.6748533 14.6653751,20.7156276 16.0825078,22.1327603 C17.4996405,23.549893 17.5404148,25.8067447 16.1735797,27.1735797 C14.8067447,28.5404148 12.549893,28.4996405 11.1327603,27.0825078 C9.71562764,25.6653751 9.67485334,23.4085234 11.0416884,22.0416884 Z" id="形状"></path>
            <path d="M19,0 C19.5522847,0 20,0.44771525 20,1 L20,3 L23,3 C23.5522847,3 24,3.44771525 24,4 L24,8 C24,8.55228475 23.5522847,9 23,9 L9,9 C8.44771525,9 8,8.55228475 8,8 L8,4 C8,3.44771525 8.44771525,3 9,3 L12,3 L12,1 C12,0.44771525 12.4477153,0 13,0 L19,0 Z" id="路径" opacity="0.600000024"></path>
        </g>
    </g>
</svg>