<?xml version="1.0" encoding="UTF-8"?>
<svg width="48px" height="48px" viewBox="0 0 48 48" version="1.1" xmlns="http://www.w3.org/2000/svg" xmlns:xlink="http://www.w3.org/1999/xlink">
    <title>附加费</title>
    <g id="附加费" stroke="none" stroke-width="1" fill="none" fill-rule="evenodd">
        <g id="编组" transform="translate(5.000000, 6.000000)" fill="#131415">
            <path d="M2.81866542,9 C2.93857737,9 3.0575118,9.02156693 3.16978886,9.06367082 L19,15 L34.8302111,9.06367082 C34.9424882,9.02156693 35.0614226,9 35.1813346,9 L37,9 C37.5522847,9 38,9.44771525 38,10 L38,36 C38,36.5522847 37.5522847,37 37,37 L1,37 C0.44771525,37 6.76353751e-17,36.5522847 0,36 L0,10 C-6.76353751e-17,9.44771525 0.44771525,9 1,9 L2.81866542,9 Z M22.6331924,18.0312173 C22.3230785,17.9122635 21.9645287,18.0307461 21.7898386,18.3244455 L21.7898386,18.3244455 L18.994,23.023 L16.2011271,18.327163 C16.0089679,18.0040936 15.5943386,17.8930366 15.2664245,18.0768062 L15.2664245,18.0768062 L14.6205234,18.438782 C14.6153279,18.4416936 14.6101702,18.4446721 14.6050516,18.4477166 C14.2760013,18.6434332 14.1679129,19.0688407 14.3636294,19.397891 L14.3636294,19.397891 L16.68,23.293 L14.6932229,23.2932438 C14.3103665,23.2932438 14,23.6036103 14,23.9864667 L14,23.9864667 L14,24.6800401 C14,25.0628965 14.3103665,25.373263 14.6932229,25.373263 L14.6932229,25.373263 L17.571,25.373 L17.571,26.759 L14.6932229,26.7599424 C14.3103665,26.7599424 14,27.0703089 14,27.4531654 L14,27.4531654 L14,28.1467387 C14,28.5295952 14.3103665,28.8399616 14.6932229,28.8399616 L14.6932229,28.8399616 L17.571,28.839 L17.5714286,32.3067771 C17.5714286,32.6896335 17.881795,33 18.2646515,33 L18.2646515,33 L19.7353485,33 C20.118205,33 20.4285714,32.6896335 20.4285714,32.3067771 L20.4285714,32.3067771 L20.428,28.839 L23.3067771,28.8399616 C23.6896335,28.8399616 24,28.5295952 24,28.1467387 L24,28.1467387 L24,27.4531654 C24,27.0703089 23.6896335,26.7599424 23.3067771,26.7599424 L23.3067771,26.7599424 L20.428,26.759 L20.428,25.373 L23.3067771,25.373263 C23.6896335,25.373263 24,25.0628965 24,24.6800401 L24,24.6800401 L24,23.9864667 C24,23.6036103 23.6896335,23.2932438 23.3067771,23.2932438 L23.3067771,23.2932438 L21.308,23.293 L23.6273362,19.3951735 L23.6732433,19.3032885 C23.8015742,18.9906747 23.6850507,18.6229233 23.3859141,18.4449991 C23.3807954,18.4419546 23.3756377,18.4389761 23.3704422,18.4360645 L23.3704422,18.4360645 L22.7245412,18.0740887 Z" id="形状结合"></path>
            <path d="M11,0 C11.3418906,0 11.6987361,0.333494084 12.0705366,1.00048225 C13.4538429,3.39142178 16.0390696,5 19,5 C21.9609304,5 24.5461571,3.39142178 25.9294634,1.00048225 C26.2338479,0.376489311 26.5518198,0.0452378033 26.8833789,0.00672773133 L27,0 L33,0 C33.5522847,0 34,0.44771525 34,1 L34,5.27924078 C34,5.70967119 33.7245699,6.09181003 33.3162278,6.22792408 L19,11 L4.68377223,6.22792408 C4.27543009,6.09181003 4,5.70967119 4,5.27924078 L4,1 C4,0.44771525 4.44771525,0 5,0 L11,0 Z" id="路径" opacity="0.600000024"></path>
        </g>
    </g>
</svg>