<?xml version="1.0" encoding="UTF-8"?>
<svg width="48px" height="48px" viewBox="0 0 48 48" version="1.1" xmlns="http://www.w3.org/2000/svg" xmlns:xlink="http://www.w3.org/1999/xlink">
    <title>需求池</title>
    <g id="需求池" stroke="none" stroke-width="1" fill="none" fill-rule="evenodd">
        <g id="编组-2" transform="translate(8.000000, 2.000000)" fill="#131415">
            <path d="M5,6 C5.55228475,6 6,6.44771525 6,7 L6,10 C6,10.5128358 6.38604019,10.9355072 6.88337887,10.9932723 L7,11 L25,11 C25.5128358,11 25.9355072,10.6139598 25.9932723,10.1166211 L26,10 L26,7 C26,6.44771525 26.4477153,6 27,6 L31,6 C31.5522847,6 32,6.44771525 32,7 L32,43 C32,43.5522847 31.5522847,44 31,44 L1,44 C0.44771525,44 0,43.5522847 0,43 L0,7 C0,6.44771525 0.44771525,6 1,6 L5,6 Z M27,31 L5,31 C4.44771525,31 4,31.4477153 4,32 L4,32 L4,33 C4,33.5522847 4.44771525,34 5,34 L5,34 L27,34 C27.5522847,34 28,33.5522847 28,33 L28,33 L28,32 C28,31.4477153 27.5522847,31 27,31 L27,31 Z M27,24 L5,24 C4.44771525,24 4,24.4477153 4,25 L4,25 L4,26 C4,26.5522847 4.44771525,27 5,27 L5,27 L27,27 C27.5522847,27 28,26.5522847 28,26 L28,26 L28,25 C28,24.4477153 27.5522847,24 27,24 L27,24 Z M27,17 L5,17 C4.44771525,17 4,17.4477153 4,18 L4,18 L4,19 C4,19.5522847 4.44771525,20 5,20 L5,20 L27,20 C27.5522847,20 28,19.5522847 28,19 L28,19 L28,18 C28,17.4477153 27.5522847,17 27,17 L27,17 Z" id="形状结合"></path>
            <path d="M19,0 C19.5522847,0 20,0.44771525 20,1 L20,3 L23,3 C23.5522847,3 24,3.44771525 24,4 L24,8 C24,8.55228475 23.5522847,9 23,9 L9,9 C8.44771525,9 8,8.55228475 8,8 L8,4 C8,3.44771525 8.44771525,3 9,3 L12,3 L12,1 C12,0.44771525 12.4477153,0 13,0 L19,0 Z" id="路径" opacity="0.600000024"></path>
        </g>
    </g>
</svg>