<?xml version="1.0" encoding="UTF-8"?>
<svg width="48px" height="48px" viewBox="0 0 48 48" version="1.1" xmlns="http://www.w3.org/2000/svg" xmlns:xlink="http://www.w3.org/1999/xlink">
    <title>颜色组</title>
    <g id="颜色组" stroke="none" stroke-width="1" fill="none" fill-rule="evenodd">
        <path d="M24,5 C34.4934102,5 43,13.5065898 43,24 L42.996,24.247 L43,24.5 C43,30.4787016 38.2302364,35.3433652 32.2884075,35.4962926 L32,35.5 L31.4358823,35.4980175 C30.2257554,35.4855595 29.0909863,35.3949093 27.9638254,34.7359179 C27.3616381,34.3498231 26.7517384,34 26,34 C24.3431458,34 23,35.3431458 23,37 C23,37.3122451 23.0689168,37.6055156 23.1574326,37.8885872 C23.213419,38.0200678 23.2769001,38.1464271 23.3432999,38.2701099 L23.6463551,38.8168665 C23.8409329,39.1803276 24,39.5527031 24,40 C24,41.6568542 22.6568538,43 21,43 C10.3907986,43 5,32.8149389 5,24 C5,13.5065898 13.5065898,5 24,5 Z M35,18 C33.3431458,18 32,19.3431458 32,21 C32,22.6568542 33.3431458,24 35,24 C36.6568542,24 38,22.6568542 38,21 C38,19.3431458 36.6568542,18 35,18 Z M13,18 C11.3431458,18 10,19.3431458 10,21 C10,22.6568542 11.3431458,24 13,24 C14.6568542,24 16,22.6568542 16,21 C16,19.3431458 14.6568542,18 13,18 Z M29,10 C27.3431458,10 26,11.3431458 26,13 C26,14.6568542 27.3431458,16 29,16 C30.6568542,16 32,14.6568542 32,13 C32,11.3431458 30.6568542,10 29,10 Z M19,10 C17.3431458,10 16,11.3431458 16,13 C16,14.6568542 17.3431458,16 19,16 C20.6568542,16 22,14.6568542 22,13 C22,11.3431458 20.6568542,10 19,10 Z" id="形状" fill="#131415"></path>
    </g>
</svg>