<?xml version="1.0" encoding="UTF-8"?>
<svg width="48px" height="48px" viewBox="0 0 48 48" version="1.1" xmlns="http://www.w3.org/2000/svg" xmlns:xlink="http://www.w3.org/1999/xlink">
    <title>首页</title>
    <g id="首页" stroke="none" stroke-width="1" fill="none" fill-rule="evenodd">
        <g transform="translate(3.801408, 4.292061)" fill="#131415">
            <path d="M28.1985922,22.7079391 C28.1985922,22.1556543 27.7508769,21.7079391 27.1985922,21.7079391 L27.1985922,21.7079391 L13.1985922,21.7079391 C12.6463074,21.7079391 12.1985922,22.1556543 12.1985922,22.7079391 L12.1985922,22.7079391 L12.1985922,38.7079391 C12.1985922,39.2602238 11.7508769,39.7079391 11.1985922,39.7079391 L4.19859218,39.7079391 C3.64630743,39.7079391 3.19859218,39.2602238 3.19859218,38.7079391 L3.198,17.707 L1,17.7079391 C0.44771525,17.7079391 -3.55271368e-15,17.2602238 -3.55271368e-15,16.7079391 C-3.55271368e-15,16.4080059 0.134626777,16.1239107 0.36676221,15.9339818 L19.5653544,0.226042701 C19.9337203,-0.0753475669 20.4634641,-0.0753475669 20.83183,0.226042701 L40.0304221,15.9339818 C40.457867,16.2837093 40.5208692,16.913732 40.1711417,17.3411768 C39.9812127,17.5733123 39.6971175,17.7079391 39.3971844,17.7079391 L37.198,17.707 L37.1985922,38.7079391 C37.1985922,39.2602238 36.7508769,39.7079391 36.1985922,39.7079391 L29.1985922,39.7079391 C28.6463074,39.7079391 28.1985922,39.2602238 28.1985922,38.7079391 Z" id="形状结合"></path>
            <rect id="矩形" opacity="0.600000024" x="16.1985922" y="25.7079391" width="8" height="14" rx="1"></rect>
        </g>
        <path d="M46,20 L2,20 L46,20 Z" id="三角形" fill="#D8D8D8"></path>
    </g>
</svg>